<svg xmlns="http://www.w3.org/2000/svg" width="1121" height="935" viewBox="0 0 1121 935">
<g>
<path d="M 460.03 457.47 C459.33,458.31 458.25,458.99 457.63,458.99 C457.01,458.98 451.28,450.09 444.91,439.24 C438.53,428.38 432.81,419.61 432.19,419.74 C431.57,419.87 431.33,419.31 431.65,418.48 C431.97,417.62 429.01,411.53 424.72,404.24 C420.59,397.23 409.46,378.23 399.98,362.00 C390.50,345.77 381.66,331.34 380.34,329.91 C377.31,326.65 378.09,323.76 381.88,324.20 C383.73,324.41 384.59,325.17 384.82,326.79 C385.00,328.05 393.12,342.68 402.87,359.29 C412.62,375.91 422.40,392.65 424.61,396.50 C437.79,419.50 458.42,453.68 459.74,454.72 C461.02,455.72 461.07,456.22 460.03,457.47 ZM 412.17 745.35 C410.92,746.48 408.54,747.00 404.64,747.00 L 398.94 747.00 L 399.22 734.75 L 399.50 722.50 L 404.34 722.19 C407.51,721.99 410.00,722.43 411.59,723.46 C413.85,724.95 414.00,725.62 414.00,734.37 C414.00,742.13 413.69,743.97 412.17,745.35 ZM 580.93 744.37 C579.35,746.37 577.97,747.00 575.18,746.98 C568.75,746.96 567.00,744.23 567.00,734.20 C567.00,728.70 567.43,726.72 569.07,724.63 C571.86,721.10 577.10,721.01 580.55,724.45 C582.71,726.62 583.00,727.78 583.00,734.32 C583.00,740.30 582.60,742.24 580.93,744.37 ZM 625.26 739.75 C622.95,746.66 621.49,748.49 620.47,745.75 C619.15,742.19 615.35,723.37 615.79,722.60 C616.80,720.83 618.69,725.03 619.99,731.96 C620.72,735.83 621.60,739.00 621.93,739.00 C622.27,739.00 623.43,736.44 624.52,733.32 C625.61,730.19 627.03,727.47 627.68,727.26 C628.38,727.03 629.58,729.25 630.62,732.69 C631.58,735.89 632.66,738.84 633.00,739.26 C633.35,739.68 634.22,736.98 634.95,733.26 C636.67,724.51 637.83,721.43 638.98,722.59 C640.20,723.82 635.03,747.00 633.54,747.00 C632.91,747.00 631.34,743.74 630.04,739.75 L 627.70 732.50 ZM 402.00 725.00 L 402.00 744.00 L 405.96 744.00 C410.88,744.00 412.00,742.24 412.00,734.50 C412.00,726.76 410.88,725.00 405.96,725.00 ZM 421.78 735.61 C421.59,743.09 421.12,746.46 420.25,746.75 C419.29,747.07 419.00,744.20 419.00,734.58 L 419.00 722.00 L 424.50 722.00 C428.67,722.00 430.48,722.48 432.00,724.00 C434.57,726.57 434.60,731.96 432.08,735.18 C430.18,737.59 430.18,737.68 432.08,741.92 L 432.12 742.01 C433.61,745.35 434.10,746.45 433.78,746.82 C433.61,747.00 433.25,747.00 432.70,747.00 L 432.67 747.00 C431.94,747.00 430.29,744.75 429.00,742.00 C427.44,738.68 426.05,737.00 424.83,737.00 C423.82,737.00 423.00,736.55 423.00,736.00 C423.00,735.45 424.04,735.00 425.31,735.00 C429.21,735.00 431.20,732.82 430.83,728.96 C430.52,725.67 430.29,725.48 426.28,725.19 L 422.07 724.89 ZM 570.67 743.33 C571.03,743.70 573.01,744.00 575.06,744.00 C579.57,744.00 580.00,743.13 580.00,734.12 C580.00,726.77 579.03,725.00 575.00,725.00 C573.57,725.00 571.86,725.54 571.20,726.20 C569.93,727.47 569.47,742.14 570.67,743.33 ZM 525.21 738.38 C524.98,745.14 524.61,747.00 523.46,747.00 C522.26,747.00 522.00,744.87 522.00,735.06 C522.00,728.47 522.43,722.85 522.96,722.52 C524.00,721.88 526.95,726.16 531.61,735.01 L 534.50 740.50 L 534.79 731.25 C535.22,717.30 537.00,719.91 537.00,734.50 C537.00,741.78 536.60,747.00 536.04,747.00 C535.52,747.00 532.93,743.12 530.29,738.38 L 525.50 729.76 ZM 590.21 738.25 C589.98,745.13 589.61,747.00 588.46,747.00 C587.26,747.00 587.00,744.87 587.00,735.06 C587.00,728.47 587.43,722.85 587.96,722.52 C589.00,721.88 591.95,726.16 596.61,735.01 L 599.50 740.50 L 599.79 731.25 C600.22,717.30 602.00,719.91 602.00,734.50 C602.00,741.71 601.60,747.00 601.05,747.00 C600.53,747.00 597.94,743.06 595.30,738.25 L 590.50 729.50 ZM 458.21 738.25 C457.76,751.80 456.00,748.80 456.00,734.50 C456.00,727.48 456.41,722.00 456.93,722.00 C457.44,722.00 460.03,726.07 462.68,731.03 L 467.50 740.07 L 467.79 730.96 C468.00,724.38 468.41,721.97 469.29,722.26 C471.13,722.87 471.55,747.00 469.72,747.00 C468.98,747.00 466.15,743.06 463.44,738.25 L 458.50 729.50 ZM 382.65 737.43 C380.92,742.34 378.94,746.54 378.25,746.77 C377.56,746.99 377.00,746.78 377.00,746.30 C377.00,744.11 384.75,722.58 385.65,722.28 C386.62,721.96 394.00,742.53 394.00,745.55 C394.00,746.67 392.50,747.00 387.42,747.00 C382.60,747.00 380.94,746.67 381.24,745.75 C381.47,745.05 383.72,744.37 386.33,744.20 C388.90,744.03 391.00,743.76 391.00,743.60 C391.00,743.26 387.23,732.14 386.39,730.00 C386.04,729.12 384.50,732.18 382.65,737.43 ZM 480.54 738.75 C478.07,746.27 476.00,749.34 476.00,745.47 C476.00,742.56 483.47,721.99 484.42,722.31 C485.25,722.58 493.00,744.18 493.00,746.22 C493.00,746.65 490.04,747.00 486.42,747.00 C481.60,747.00 479.94,746.67 480.24,745.75 C480.47,745.06 482.67,744.37 485.13,744.20 L 489.60 743.91 L 487.18 736.38 C485.84,732.23 484.42,729.22 484.00,729.67 C483.59,730.13 482.03,734.21 480.54,738.75 ZM 729.17 745.35 C726.89,747.41 715.58,747.76 716.24,745.75 C716.48,745.04 719.02,744.28 722.08,744.00 C727.06,743.54 727.50,743.30 727.50,741.00 C727.50,739.04 726.45,737.94 722.64,735.88 C717.25,732.97 716.04,731.58 716.02,728.25 C715.99,724.34 719.50,721.85 724.57,722.20 C730.48,722.60 730.29,724.37 724.27,725.00 C719.98,725.45 719.47,725.77 719.19,728.20 C718.92,730.50 719.51,731.22 723.19,733.06 C725.56,734.26 728.29,735.93 729.25,736.77 C731.53,738.78 731.49,743.25 729.17,745.35 ZM 450.76 745.75 C451.35,747.56 439.13,747.49 438.43,745.69 C438.16,744.96 438.06,739.45 438.21,733.44 L 438.50 722.50 L 444.75 722.20 C449.85,721.96 451.00,722.19 451.00,723.45 C451.00,724.64 449.85,725.00 446.00,725.00 L 441.00 725.00 L 441.00 743.89 L 445.67 744.20 C448.28,744.37 450.53,745.05 450.76,745.75 ZM 676.76 745.75 C677.35,747.57 665.40,747.49 664.70,745.67 C664.42,744.94 664.26,739.43 664.35,733.42 L 664.50 722.50 L 670.75 722.20 C675.85,721.96 677.00,722.19 677.00,723.45 C677.00,724.64 675.85,725.00 672.00,725.00 L 667.00 725.00 L 667.00 743.89 L 671.67 744.20 C674.28,744.37 676.53,745.05 676.76,745.75 ZM 554.76 745.75 C555.06,746.67 553.40,747.00 548.55,747.00 L 541.94 747.00 L 542.22 734.75 L 542.50 722.50 L 548.25 722.50 C555.04,722.50 556.06,724.36 549.52,724.80 L 545.00 725.11 L 545.00 743.89 L 549.67 744.20 C552.28,744.37 554.53,745.05 554.76,745.75 ZM 693.76 745.75 C694.05,746.66 692.50,747.00 688.08,747.00 L 682.00 747.00 L 682.00 722.00 L 688.00 722.00 C692.67,722.00 694.00,722.33 694.00,723.50 C694.00,724.63 692.78,725.00 689.00,725.00 L 684.00 725.00 L 684.00 743.89 L 688.67 744.20 C691.28,744.37 693.53,745.05 693.76,745.75 ZM 710.76 745.75 C711.05,746.66 709.50,747.00 705.08,747.00 L 699.00 747.00 L 699.00 734.42 C699.00,724.80 699.29,721.93 700.25,722.25 C701.12,722.54 701.59,725.88 701.78,733.28 L 702.07 743.89 L 706.21 744.19 C708.48,744.36 710.53,745.06 710.76,745.75 ZM 659.78 734.75 C660.02,745.20 659.84,747.00 658.53,747.00 C657.33,747.00 657.00,745.72 657.00,741.00 L 657.00 735.00 L 653.00 735.00 C650.11,735.00 649.00,734.58 649.00,733.50 C649.00,732.42 650.11,732.00 652.95,732.00 L 656.89 732.00 L 657.20 727.48 C657.36,725.00 657.95,722.86 658.50,722.73 C659.11,722.59 659.61,727.23 659.78,734.75 ZM 509.76 745.75 C510.05,746.66 508.50,747.00 504.08,747.00 L 498.00 747.00 L 498.00 734.50 C498.00,726.83 498.39,722.00 499.00,722.00 C499.61,722.00 500.00,726.32 500.00,732.95 L 500.00 743.89 L 504.67 744.20 C507.28,744.37 509.53,745.05 509.76,745.75 ZM 517.50 734.50 C517.50,743.08 517.16,746.45 516.25,746.75 C515.29,747.07 515.00,744.19 515.00,734.50 C515.00,724.81 515.29,721.93 516.25,722.25 C517.16,722.55 517.50,725.92 517.50,734.50 ZM 647.00 734.50 C647.00,742.17 646.61,747.00 646.00,747.00 C645.39,747.00 645.00,742.17 645.00,734.50 C645.00,726.83 645.39,722.00 646.00,722.00 C646.61,722.00 647.00,726.83 647.00,734.50 ZM 677.00 733.50 C677.00,734.58 675.89,735.00 673.00,735.00 C670.11,735.00 669.00,734.58 669.00,733.50 C669.00,732.42 670.11,732.00 673.00,732.00 C675.89,732.00 677.00,732.42 677.00,733.50 ZM 694.00 733.50 C694.00,734.58 692.89,735.00 690.00,735.00 C687.11,735.00 686.00,734.58 686.00,733.50 C686.00,732.42 687.11,732.00 690.00,732.00 C692.89,732.00 694.00,732.42 694.00,733.50 ZM 451.00 733.50 C451.00,734.58 449.89,735.00 447.00,735.00 C444.11,735.00 443.00,734.58 443.00,733.50 C443.00,732.42 444.11,732.00 447.00,732.00 C449.89,732.00 451.00,732.42 451.00,733.50 ZM 554.50 733.50 C554.50,734.87 547.34,735.37 546.53,734.05 C546.17,733.46 546.54,732.73 547.35,732.42 C549.52,731.59 554.50,732.34 554.50,733.50 Z" fill="rgb(58,38,18)"/>
<path d="M 1063.16 702.24 L 1056.54 705.50 L 559.02 705.67 C165.18,705.80 60.43,705.58 56.38,704.59 C45.87,702.03 37.95,695.39 33.10,685.05 L 30.50 679.50 L 30.23 551.11 C30.21,544.79 30.20,538.76 30.19,533.01 C29.95,425.49 29.93,415.76 34.27,408.73 C34.93,407.65 35.70,406.64 36.58,405.35 C40.60,399.47 45.48,395.77 52.88,392.95 C57.89,391.05 61.58,391.00 197.62,391.00 C330.18,391.00 337.18,391.09 336.48,392.75 C336.08,393.71 334.92,397.08 333.91,400.24 C332.89,403.40 331.40,407.27 330.58,408.84 C329.15,411.61 322.67,417.97 321.22,418.03 C320.82,418.05 319.67,418.69 318.66,419.46 C316.89,420.80 316.97,422.05 320.96,455.17 C323.24,474.05 325.30,490.50 325.56,491.72 C326.00,493.83 326.51,493.63 335.26,487.92 C346.89,480.33 347.29,479.81 346.52,473.45 C345.74,467.00 346.34,466.44 361.06,459.93 C380.78,451.21 382.19,449.63 381.27,437.22 L 380.73 429.95 L 384.67 426.20 C387.32,423.68 394.18,419.87 405.56,414.62 C414.88,410.32 422.64,406.67 422.80,406.51 C422.97,406.35 421.08,402.91 418.61,398.86 C416.14,394.81 414.54,391.35 415.06,391.17 C415.58,390.98 416.00,390.46 416.00,390.01 C416.00,389.72 414.76,387.41 412.75,383.84 C417.92,392.67 422.41,400.33 424.72,404.24 C429.01,411.53 431.97,417.62 431.65,418.48 C431.33,419.31 431.57,419.87 432.19,419.74 C432.21,419.73 432.23,419.74 432.26,419.75 C429.92,422.37 407.66,453.01 381.20,490.07 L 330.90 560.50 L 438.37 560.75 C497.48,560.89 594.41,560.89 653.77,560.75 L 761.69 560.50 L 721.28 506.50 C699.05,476.80 670.55,438.66 657.95,421.74 L 635.03 390.98 L 846.76 391.24 L 1058.50 391.50 L 1064.83 394.93 C1071.06,398.31 1076.26,403.56 1079.28,409.51 C1083.00,416.85 1083.11,421.29 1082.80,552.00 L 1082.50 679.50 L 1079.86 685.12 C1076.16,693.03 1070.87,698.45 1063.16,702.24 ZM 460.03 457.47 C461.05,456.24 461.02,455.73 459.81,454.77 C460.93,454.99 493.34,442.95 497.30,440.84 C501.13,438.79 497.40,433.87 489.00,429.87 C486.52,428.69 483.15,426.42 481.50,424.82 C479.85,423.22 475.58,420.00 472.00,417.66 C467.94,415.00 464.25,411.55 462.15,408.45 C459.25,404.16 458.86,402.88 459.25,398.79 C459.55,395.63 460.65,392.84 462.60,390.29 C464.19,388.21 466.24,384.40 467.15,381.83 C469.31,375.71 474.41,368.37 477.70,366.65 C479.14,365.89 481.03,363.91 481.91,362.23 C484.64,356.99 500.96,339.00 502.98,339.00 C504.45,339.00 504.84,338.29 504.77,335.75 C504.72,333.96 505.19,331.15 505.81,329.50 C506.43,327.85 507.19,325.24 507.50,323.71 C507.81,322.17 508.83,320.68 509.78,320.39 C510.73,320.11 512.88,319.20 514.56,318.38 C517.47,316.96 518.14,317.09 528.06,320.92 C533.80,323.14 541.84,325.93 545.91,327.13 L 553.33 329.29 L 548.91 331.60 C546.49,332.87 543.54,333.93 542.37,333.95 C539.72,334.01 538.67,335.36 537.14,340.74 C536.25,343.84 536.22,345.54 537.01,347.02 C537.88,348.64 537.64,349.87 535.85,353.06 C532.82,358.45 529.97,359.05 523.82,355.59 C518.34,352.51 517.00,352.82 517.00,357.18 C517.00,358.87 515.81,362.91 514.35,366.15 C511.30,372.96 511.93,376.16 516.74,378.20 C518.26,378.85 522.08,380.93 525.24,382.82 C529.92,385.64 531.63,386.16 534.57,385.68 C536.98,385.29 539.83,385.75 543.14,387.06 C547.03,388.59 548.56,388.77 550.18,387.90 C552.03,386.91 553.25,387.78 561.48,395.98 L 570.71 405.17 L 581.11 400.69 C595.35,394.55 600.89,394.06 616.53,397.56 C627.54,400.03 630.55,401.31 629.46,403.07 C629.23,403.43 622.17,403.95 613.77,404.21 L 598.50 404.69 L 588.60 409.68 L 578.70 414.67 L 589.84 423.33 C595.97,428.10 601.52,432.00 602.16,432.00 C602.81,432.00 603.04,431.70 602.68,431.34 C601.71,430.37 603.98,428.00 605.89,428.00 C606.79,428.00 607.97,426.99 608.51,425.75 C609.08,424.46 610.38,423.50 611.57,423.50 C612.70,423.50 614.42,422.71 615.39,421.75 C616.56,420.58 617.96,420.20 619.57,420.61 C621.15,421.00 622.00,420.79 622.00,420.00 C622.00,419.15 623.05,418.97 625.42,419.42 C627.41,419.79 629.11,419.63 629.48,419.03 C630.31,417.68 634.00,417.69 634.00,419.05 C634.00,419.69 635.29,419.85 637.36,419.46 C639.93,418.98 640.87,419.21 641.34,420.44 C641.77,421.58 642.67,421.87 644.40,421.44 C646.25,420.97 647.11,421.34 647.99,422.97 C648.62,424.15 649.67,424.93 650.32,424.70 C651.90,424.13 655.19,425.88 654.54,426.94 C654.25,427.40 654.69,428.33 655.51,429.01 C656.33,429.69 657.00,429.91 657.00,429.50 C657.00,429.09 657.67,429.32 658.50,430.00 C659.33,430.68 660.00,431.98 660.00,432.89 C660.00,433.79 661.01,434.97 662.25,435.51 C663.54,436.08 664.50,437.38 664.50,438.57 C664.50,439.70 665.30,441.44 666.28,442.42 C667.32,443.46 667.83,444.97 667.49,446.02 C667.18,447.02 667.43,448.15 668.05,448.53 C668.74,448.96 668.94,450.51 668.56,452.54 C668.21,454.42 668.38,456.12 668.97,456.48 C670.34,457.33 670.30,461.00 668.92,461.00 C668.25,461.00 668.08,462.10 668.48,463.92 C668.96,466.09 668.69,467.08 667.41,467.79 C666.36,468.38 665.93,469.39 666.31,470.38 C667.16,472.57 666.11,475.00 664.33,475.00 C663.40,475.00 662.99,475.80 663.19,477.21 C663.40,478.74 662.74,479.80 661.00,480.68 C659.62,481.37 658.49,482.52 658.47,483.22 C658.43,485.39 656.97,487.00 655.06,487.00 C654.05,487.00 653.00,487.90 652.71,489.00 C652.33,490.46 651.35,491.00 649.09,491.00 C647.01,491.00 646.00,491.49 646.00,492.50 C646.00,494.05 645.08,494.35 641.25,494.04 C640.01,493.94 639.00,494.39 639.00,495.04 C639.00,495.86 637.88,496.01 635.35,495.54 C632.80,495.06 631.46,495.25 630.88,496.18 C630.22,497.25 629.68,497.26 628.02,496.23 C626.89,495.53 624.87,495.25 623.50,495.59 C621.70,496.04 620.84,495.75 620.37,494.53 C619.96,493.45 619.02,493.02 617.77,493.35 C615.18,494.03 613.00,493.13 613.00,491.39 C613.00,490.57 611.97,490.00 610.48,490.00 C608.70,490.00 607.67,489.26 607.00,487.50 C606.43,486.00 605.26,485.00 604.08,485.00 C601.97,485.00 600.57,483.42 600.53,481.00 C600.51,480.18 599.92,479.50 599.21,479.50 C597.65,479.50 595.92,476.93 596.67,475.72 C596.97,475.24 596.26,473.96 595.10,472.88 C593.58,471.47 593.16,470.21 593.60,468.45 C593.94,467.08 593.78,466.00 593.23,466.00 C592.68,466.00 592.00,465.10 591.71,464.00 C591.42,462.90 591.60,462.00 592.09,462.00 C592.59,462.00 593.00,461.10 593.00,460.00 C593.00,458.90 592.55,458.00 592.00,458.00 C591.45,458.00 591.00,457.10 591.00,456.00 C591.00,454.90 591.47,454.00 592.05,454.00 C592.69,454.00 592.85,452.71 592.46,450.64 C592.00,448.17 592.22,447.13 593.30,446.71 C594.20,446.37 594.71,444.98 594.62,443.11 C594.49,440.45 593.14,439.13 583.68,432.42 C577.75,428.21 572.69,424.98 572.43,425.24 C571.47,426.19 569.16,439.74 568.50,448.24 C567.82,456.94 567.84,457.01 570.91,460.89 C572.61,463.03 574.00,465.11 574.00,465.50 C574.00,465.89 572.88,467.10 571.50,468.18 C569.60,469.68 569.00,471.08 569.00,474.05 C569.00,477.77 568.54,478.33 559.38,485.89 C548.84,494.59 546.83,495.33 530.00,496.70 C523.31,497.25 521.80,497.78 516.01,501.66 C512.15,504.24 510.28,506.00 511.39,506.00 C512.93,506.00 513.15,506.52 512.64,509.04 C512.23,511.11 512.46,512.24 513.37,512.59 C514.91,513.18 515.29,523.70 513.81,524.62 C513.29,524.94 513.36,525.73 513.97,526.46 C515.16,527.90 514.34,531.00 512.78,531.00 C512.22,531.00 512.00,531.91 512.29,533.02 C512.60,534.18 512.11,535.74 511.16,536.70 C510.25,537.62 509.50,539.07 509.50,539.93 C509.50,540.79 508.51,541.94 507.29,542.47 C506.08,543.00 504.95,544.35 504.79,545.47 C504.62,546.66 503.62,547.63 502.35,547.81 C501.17,547.97 499.98,548.99 499.70,550.06 C499.36,551.32 498.32,552.00 496.70,552.00 C495.33,552.00 493.94,552.72 493.60,553.61 C493.16,554.75 492.26,555.03 490.47,554.58 C488.77,554.16 487.78,554.41 487.42,555.36 C486.76,557.07 477.23,557.26 475.09,555.60 C474.06,554.80 473.57,554.81 473.29,555.64 C472.85,556.93 469.00,556.25 469.00,554.88 C469.00,554.40 467.65,554.00 466.00,554.00 C463.00,551.55 462.05,551.00 460.41,551.00 C458.65,551.00 457.64,550.35 457.29,549.00 C457.00,547.90 456.01,547.00 455.08,547.00 C452.80,547.00 451.03,545.07 451.71,543.32 C452.05,542.42 451.46,541.67 450.13,541.32 C448.96,541.02 447.95,540.26 447.88,539.63 C447.82,539.01 447.71,538.02 447.63,537.43 C447.56,536.85 446.70,535.56 445.72,534.58 C444.34,533.20 444.19,532.47 445.08,531.41 C445.96,530.34 445.88,529.89 444.73,529.45 C442.97,528.77 442.67,519.32 444.34,517.17 C445.06,516.24 445.01,515.62 444.15,515.09 C442.79,514.25 443.64,511.00 445.22,511.00 C445.78,511.00 446.00,510.09 445.71,508.98 C445.40,507.82 445.89,506.26 446.84,505.30 C448.41,503.72 448.61,503.24 448.88,500.25 C448.95,499.56 449.65,499.00 450.45,499.00 C451.24,499.00 452.50,497.76 453.24,496.25 C453.97,494.74 455.24,493.61 456.06,493.74 C456.87,493.87 457.98,492.97 458.52,491.74 C459.08,490.46 460.39,489.50 461.57,489.50 C462.70,489.50 464.38,488.75 465.30,487.84 C466.25,486.89 467.82,486.40 468.98,486.71 C470.09,487.00 471.00,486.79 471.00,486.25 C471.00,484.66 487.91,485.23 488.91,486.86 C489.43,487.69 490.54,487.96 491.81,487.56 C493.31,487.09 494.19,487.48 494.99,488.98 C495.60,490.13 496.64,491.00 497.30,490.91 C499.86,490.59 500.79,491.07 501.29,493.00 C501.58,494.10 502.33,495.00 502.97,495.00 C503.78,495.00 503.91,493.59 503.40,490.25 C502.54,484.56 502.55,484.02 503.51,481.68 C504.22,479.98 503.55,479.88 493.38,480.04 C480.31,480.25 468.92,479.01 466.65,477.13 C465.74,476.37 465.00,474.78 465.00,473.58 C465.00,467.88 459.27,467.64 441.54,472.58 C432.26,475.18 428.12,475.91 426.64,475.25 C424.76,474.41 425.01,474.08 429.40,471.51 C432.05,469.95 438.99,466.55 444.82,463.95 C450.66,461.34 455.53,458.82 455.65,458.35 C455.76,457.95 453.65,454.01 450.66,448.80 C454.41,454.86 457.21,458.98 457.63,458.99 C458.25,458.99 459.33,458.31 460.03,457.47 ZM 297.25 684.29 C300.82,684.98 328.67,685.06 330.42,684.39 C331.80,683.86 332.00,680.83 332.00,660.68 C332.00,640.86 332.20,637.78 333.40,639.04 C334.17,639.84 339.90,649.33 346.15,660.11 C352.39,670.90 358.17,680.70 359.00,681.89 C360.71,684.36 368.40,685.71 374.35,684.59 C377.73,683.96 378.44,682.97 391.04,661.47 C398.28,649.11 404.60,639.00 405.08,639.00 C405.57,639.00 406.08,649.24 406.23,661.75 L 406.50 684.50 L 420.50 684.80 C428.20,684.97 436.41,684.83 438.75,684.49 L 443.00 683.88 L 443.00 585.96 L 396.70 586.50 L 383.34 609.50 C375.99,622.15 369.60,632.63 369.14,632.78 C368.68,632.94 363.67,625.06 358.01,615.28 C352.36,605.50 346.18,594.91 344.29,591.75 L 340.86 586.00 L 295.00 586.00 L 295.00 683.86 ZM 480.36 684.01 C483.74,684.48 498.42,684.74 513.00,684.58 C543.70,684.25 547.23,683.49 555.53,675.42 C562.95,668.21 563.00,667.94 563.00,634.92 L 563.00 605.77 L 560.31 600.83 C557.42,595.51 550.30,589.59 544.17,587.40 C541.45,586.43 532.39,586.08 509.29,586.04 C479.83,586.00 477.76,586.12 472.38,588.13 C465.05,590.87 456.65,598.84 455.10,604.50 C453.71,609.61 453.64,660.16 455.02,665.12 C456.41,670.12 463.26,677.59 469.24,680.62 C471.98,682.01 476.98,683.53 480.36,684.01 ZM 724.91 684.02 C728.53,684.48 743.20,684.73 757.50,684.59 C781.14,684.35 783.98,684.14 788.81,682.24 C795.89,679.45 802.33,674.01 804.95,668.61 C807.01,664.35 807.07,663.11 806.79,633.85 L 806.50 603.50 L 803.34 598.95 C799.83,593.90 794.09,589.51 788.30,587.44 C785.42,586.42 776.93,586.08 753.29,586.04 C724.42,586.00 721.67,586.15 716.71,588.01 C709.56,590.68 703.26,596.26 700.37,602.44 C698.08,607.37 698.02,608.21 698.03,635.00 C698.04,660.50 698.19,662.83 700.08,667.00 C704.32,676.37 713.36,682.57 724.91,684.02 ZM 195.00 499.08 L 195.00 561.00 L 232.00 561.00 L 232.00 526.93 L 241.73 527.21 L 251.45 527.50 L 274.17 560.00 L 314.17 560.00 L 310.72 555.25 C308.83,552.64 302.51,543.78 296.69,535.56 L 286.10 520.62 L 290.80 517.45 C304.03,508.53 310.96,495.45 310.99,479.36 C311.02,459.22 298.70,442.35 279.19,435.80 C272.79,433.65 270.79,433.54 233.72,433.22 L 194.94 432.89 L 195.22 447.20 L 195.50 461.50 L 228.50 462.00 C259.86,462.48 261.70,462.61 265.50,464.65 C271.82,468.05 274.22,471.24 274.77,476.95 C275.43,483.81 271.66,491.61 265.74,495.63 L 261.50 498.50 ZM 977.50 558.97 C994.79,562.60 1012.54,561.12 1028.00,554.74 C1038.06,550.59 1047.63,541.31 1050.94,532.50 C1056.12,518.71 1053.00,505.02 1042.38,494.97 C1035.62,488.58 1031.46,486.75 1015.39,483.11 C989.42,477.23 980.76,472.13 981.26,463.05 C981.47,459.13 981.92,458.36 985.00,456.56 C992.37,452.27 1014.89,455.01 1029.90,462.04 C1033.42,463.69 1036.44,464.89 1036.62,464.71 C1036.80,464.54 1039.44,458.37 1042.49,451.02 C1046.76,440.73 1047.75,437.44 1046.77,436.76 C1044.14,434.94 1036.21,431.76 1028.00,429.25 C1020.31,426.89 1017.89,426.64 1002.50,426.60 C989.07,426.56 984.14,426.93 979.00,428.35 C958.66,434.00 946.92,446.04 944.04,464.21 C942.25,475.51 944.63,482.57 953.02,490.83 C960.14,497.84 970.24,502.50 987.25,506.63 C995.09,508.53 1003.62,510.77 1006.22,511.61 C1014.43,514.27 1018.69,522.25 1014.11,526.40 C1005.28,534.39 980.75,533.70 961.07,524.89 C957.16,523.14 953.76,521.91 953.51,522.15 C953.27,522.39 950.60,527.86 947.57,534.30 L 942.07 546.01 L 947.79 548.89 C955.94,553.00 967.09,556.78 977.50,558.97 ZM 105.00 463.04 L 105.00 561.00 L 142.00 561.00 L 142.00 463.00 L 183.00 463.00 L 183.00 433.00 L 64.95 433.00 L 65.50 462.50 L 85.25 462.77 ZM 838.00 430.00 L 838.00 558.00 L 938.00 558.00 L 938.00 527.00 L 875.00 527.00 L 875.00 430.00 L 838.00 430.00 ZM 613.75 684.32 C614.71,684.58 623.15,684.73 632.50,684.65 L 649.50 684.50 L 649.76 645.75 L 650.02 607.00 L 687.00 607.00 L 687.00 586.00 L 574.00 586.00 L 574.00 607.00 L 612.00 607.00 L 612.00 645.43 C612.00,681.18 612.12,683.89 613.75,684.32 ZM 795.00 430.00 L 777.00 430.00 L 777.00 558.00 L 795.00 558.00 C812.33,558.00 813.00,557.93 813.01,556.00 C813.01,554.90 813.02,527.00 813.02,494.00 C813.02,461.00 813.01,433.10 813.01,432.00 C813.00,430.07 812.33,430.00 795.00,430.00 ZM 622.62 485.42 C635.84,489.64 650.56,482.80 657.04,469.42 C658.83,465.71 659.43,462.77 659.46,457.50 C659.53,445.84 653.76,436.64 642.72,430.77 C636.43,427.42 624.40,427.63 617.50,431.20 C614.75,432.62 611.68,434.69 610.67,435.81 C608.87,437.80 608.96,437.93 616.59,443.94 C621.90,448.13 624.67,449.73 625.37,449.03 C625.94,448.46 628.29,448.00 630.61,448.00 C634.09,448.00 635.27,448.54 637.41,451.08 C641.03,455.38 640.91,460.25 637.08,464.08 C632.13,469.02 624.92,467.61 621.51,461.02 C619.61,457.34 604.22,446.38 602.87,447.73 C600.98,449.62 600.69,459.41 602.35,465.14 C605.32,475.34 612.01,482.03 622.62,485.42 ZM 523.71 657.00 C522.47,659.45 522.19,659.51 509.32,659.78 C494.74,660.09 493.59,659.67 492.48,653.72 C492.14,651.95 492.01,641.57 492.19,630.66 C492.41,616.83 492.24,611.06 495.00,608.67 C496.98,606.96 500.45,606.98 506.62,607.01 C507.33,607.01 508.08,607.01 508.86,607.02 C515.26,607.02 521.00,607.36 521.60,607.77 C524.53,609.72 525.00,613.34 524.99,633.68 C524.97,648.44 524.60,655.23 523.71,657.00 ZM 767.44 657.78 C765.97,659.88 765.18,660.00 753.10,660.00 C752.01,660.00 751.00,660.01 750.05,660.01 C744.31,660.05 740.99,660.08 739.07,658.45 C736.44,656.21 736.46,650.87 736.49,638.21 C736.50,636.68 736.50,635.05 736.50,633.31 C736.50,631.74 736.50,630.27 736.49,628.89 C736.47,616.23 736.45,610.87 739.10,608.60 C741.05,606.94 744.44,606.96 750.32,606.99 C751.20,606.99 752.12,607.00 753.11,607.00 C754.08,607.00 754.98,606.99 755.84,606.99 C761.35,606.96 764.57,606.94 766.43,608.51 C769.05,610.71 769.03,616.03 769.01,628.77 C769.00,630.18 769.00,631.68 769.00,633.28 C769.00,651.82 768.74,655.93 767.44,657.78 ZM 470.04 543.42 C477.56,546.68 489.64,544.47 495.85,538.69 C500.12,534.71 503.00,527.63 503.00,521.12 C503.00,514.78 502.35,512.00 500.88,512.00 C498.87,512.00 489.00,519.39 489.00,520.89 C488.99,523.73 485.33,528.62 482.25,529.90 C475.89,532.53 468.01,525.76 469.51,518.95 C470.47,514.58 475.42,510.88 479.97,511.15 C483.08,511.34 484.56,510.65 488.85,507.03 C491.68,504.64 494.00,502.29 494.00,501.79 C494.00,499.82 485.40,497.04 479.22,497.02 C464.74,496.97 455.07,506.46 455.02,520.78 C454.99,531.23 460.26,539.18 470.04,543.42 ZM 517.61 422.42 C519.20,424.94 520.71,427.00 520.97,427.00 C521.23,427.00 524.18,424.29 527.52,420.98 C533.02,415.53 534.11,414.89 538.87,414.33 C542.85,413.86 544.52,413.14 545.65,411.41 C547.05,409.27 546.93,408.82 543.83,404.60 C542.00,402.11 540.15,400.06 539.73,400.04 C539.30,400.02 538.44,401.12 537.82,402.50 C536.50,405.39 532.55,405.88 529.44,403.53 C528.37,402.72 526.54,402.05 525.37,402.03 C524.19,402.01 519.69,399.98 515.37,397.51 C511.04,395.04 507.00,393.01 506.38,393.01 C505.77,393.00 504.07,392.06 502.60,390.90 L 499.94 388.80 L 495.48 392.91 L 491.02 397.02 L 497.26 401.72 C505.22,407.72 513.91,416.56 517.61,422.42 ZM 393.78 414.75 L 395.23 417.00 L 388.87 416.83 C381.54,416.62 378.16,416.75 375.67,415.32 C373.06,413.82 371.43,410.60 367.25,403.46 C363.26,396.66 360.00,390.65 360.00,390.12 C360.00,388.39 369.44,381.01 371.67,381.01 C373.23,381.00 374.67,382.45 376.84,386.20 C379.62,391.03 379.74,391.60 378.42,394.15 C376.26,398.33 376.58,399.04 380.05,397.83 C381.73,397.25 383.22,396.93 383.36,397.13 C383.50,397.34 385.58,400.88 387.98,405.00 C390.37,409.12 392.99,413.51 393.78,414.75 ZM 559.00 448.51 C559.00,449.88 559.36,451.00 559.80,451.00 C561.01,451.00 563.00,437.86 563.00,429.87 L 563.00 422.78 L 559.25 423.39 L 555.50 424.01 L 560.49 421.36 L 565.47 418.72 L 555.99 416.45 C550.77,415.19 546.05,414.54 545.50,414.99 C544.95,415.44 542.47,416.12 539.98,416.48 C536.07,417.07 534.36,418.23 527.18,425.19 C522.62,429.60 519.09,433.42 519.34,433.67 C519.59,433.92 522.91,432.56 526.71,430.65 C537.06,425.43 543.99,423.65 548.85,424.96 L 552.81 426.03 L 551.17 431.13 C550.28,433.94 548.95,436.46 548.24,436.74 C547.45,437.04 549.34,438.99 552.97,441.63 C557.55,444.97 559.00,446.62 559.00,448.51 ZM 522.25 393.27 C524.59,393.48 527.09,393.73 527.81,393.83 C530.74,394.22 527.41,391.72 520.09,388.04 C515.81,385.90 511.56,382.98 510.64,381.57 C509.71,380.16 509.26,379.00 509.64,379.00 C510.01,379.00 514.56,381.29 519.75,384.08 C524.93,386.88 529.39,388.95 529.65,388.69 C529.91,388.42 526.10,385.89 521.19,383.06 C509.72,376.43 508.26,374.09 509.87,364.84 C510.49,361.26 511.00,356.83 511.00,355.00 C511.00,348.91 506.07,346.16 501.22,349.56 C498.40,351.54 498.43,352.70 501.45,357.15 C503.75,360.52 503.83,361.07 502.70,365.63 C501.53,370.39 501.40,370.52 496.75,371.42 C494.14,371.92 492.00,372.62 492.00,372.98 C492.00,373.33 494.36,374.21 497.25,374.94 C500.14,375.66 503.06,376.70 503.75,377.25 C505.65,378.76 505.24,381.00 503.06,381.00 C501.99,381.00 500.84,381.45 500.50,382.00 C500.16,382.55 500.34,383.00 500.90,383.00 C503.65,383.00 513.00,387.31 513.00,388.57 C513.00,389.43 514.00,390.00 515.50,390.00 C517.01,390.00 518.00,390.57 518.00,391.44 C518.00,392.41 519.39,393.01 522.25,393.27 ZM 368.96 423.38 L 366.86 429.00 L 362.04 429.00 C358.08,429.00 356.96,428.58 355.67,426.62 C354.22,424.40 354.26,424.10 356.38,422.11 C358.17,420.43 359.36,420.12 362.01,420.65 L 365.37 421.32 L 363.12 418.16 C360.67,414.73 360.54,414.69 354.19,415.92 C349.93,416.74 349.84,416.70 347.39,412.83 L 347.28 412.65 C344.40,408.09 343.08,406.00 343.41,404.21 C343.69,402.66 345.19,401.34 347.96,398.85 C350.94,396.18 354.14,394.00 355.08,394.00 C356.01,394.00 357.54,395.17 358.47,396.59 C360.10,399.08 360.08,399.29 358.02,401.48 C356.68,402.90 355.13,403.59 353.94,403.27 C351.49,402.63 350.47,405.14 352.01,408.02 C352.85,409.60 353.76,410.03 355.34,409.59 C356.53,409.27 359.11,408.73 361.08,408.40 C364.51,407.82 364.80,408.01 367.86,412.78 L 371.06 417.77 ZM 515.69 437.12 C516.37,440.46 516.39,440.44 517.81,434.69 C519.14,429.31 519.11,428.61 517.37,425.36 C514.51,420.00 506.46,412.17 496.50,405.06 C487.06,398.32 485.03,397.78 477.30,399.92 C474.91,400.58 475.42,400.81 480.82,401.45 C485.41,402.00 487.87,402.88 489.82,404.65 L 492.50 407.10 L 477.50 405.96 L 482.50 407.98 C485.25,409.09 490.42,410.94 494.00,412.08 C503.73,415.19 503.91,415.35 498.50,416.01 L 493.50 416.63 L 497.84 417.46 C500.45,417.95 503.14,419.32 504.58,420.87 L 506.97 423.45 L 504.42 425.48 C502.75,426.82 502.09,428.08 502.51,429.17 C503.09,430.67 503.50,430.69 506.54,429.42 C508.41,428.64 511.08,428.00 512.47,428.00 C514.59,428.00 515.00,428.47 515.00,430.88 C515.00,432.46 515.31,435.27 515.69,437.12 ZM 448.10 436.29 C440.88,424.37 431.67,408.83 424.61,396.50 C422.40,392.65 412.62,375.91 402.87,359.29 C393.12,342.68 385.00,328.05 384.82,326.79 C384.74,326.18 384.56,325.69 384.28,325.31 C384.62,325.75 384.85,326.33 385.00,327.09 C385.27,328.51 393.60,343.47 403.50,360.33 L 421.50 390.97 L 436.76 390.99 L 452.01 391.00 L 445.72 399.75 C442.25,404.56 438.48,409.85 437.33,411.50 L 435.24 414.50 L 447.02 434.47 C447.39,435.08 447.75,435.69 448.10,436.29 ZM 600.00 437.56 C614.03,448.72 625.79,457.89 626.14,457.93 C626.50,457.97 627.04,457.33 627.36,456.52 C627.75,455.49 624.04,452.03 615.21,445.21 C608.22,439.81 596.52,430.69 589.20,424.94 C575.14,413.90 552.27,398.74 550.53,399.32 C548.10,400.13 550.08,402.25 559.50,408.90 C566.53,413.87 570.06,415.79 571.40,415.37 C572.90,414.90 573.16,415.14 572.64,416.50 C572.19,417.66 572.39,418.06 573.24,417.74 C573.93,417.48 585.97,426.39 600.00,437.56 ZM 359.42 444.47 C358.99,446.19 358.74,447.40 358.21,447.55 C357.17,447.83 355.03,444.15 348.28,432.53 C347.93,431.93 347.57,431.31 347.20,430.66 C340.22,418.64 339.85,417.72 341.43,416.16 C341.95,415.66 342.33,415.27 342.75,415.21 C344.03,415.03 345.72,417.87 352.75,429.66 L 353.08 430.21 C358.60,439.47 359.93,442.45 359.42,444.47 ZM 517.11 471.86 L 517.23 476.50 L 518.10 472.50 C518.77,469.43 518.37,449.00 517.64,449.00 C515.89,449.00 503.52,453.27 501.58,454.54 C497.25,457.38 500.09,458.21 506.53,455.99 C509.78,454.87 513.02,454.18 513.72,454.45 C515.96,455.30 515.10,457.90 512.06,459.47 C510.45,460.30 508.87,461.40 508.56,461.90 C507.49,463.63 509.21,466.00 511.53,466.00 C516.06,466.00 516.99,466.98 517.11,471.86 ZM 475.44 521.10 C473.70,523.91 479.26,520.45 497.28,507.50 C507.99,499.80 516.64,493.37 516.50,493.20 C516.35,493.04 513.93,493.21 511.12,493.58 C507.78,494.02 506.00,494.73 506.00,495.63 C506.00,496.38 505.42,497.00 504.72,497.00 C503.45,497.00 476.75,518.98 475.44,521.10 ZM 572.98 408.48 C573.68,409.31 574.63,410.00 575.11,410.00 C576.72,410.00 592.88,401.62 592.49,400.98 C592.28,400.64 593.54,400.32 595.30,400.28 C597.06,400.24 601.20,400.10 604.50,399.96 C607.80,399.82 612.97,400.05 616.00,400.47 C623.86,401.55 621.76,400.32 612.47,398.40 C601.36,396.10 593.89,397.03 582.00,402.17 C576.78,404.42 572.32,406.42 572.11,406.61 C571.89,406.80 572.28,407.64 572.98,408.48 ZM 460.45 460.56 C462.62,461.44 465.30,461.30 472.86,459.89 C478.16,458.90 483.17,457.99 484.00,457.86 C484.83,457.73 481.67,457.37 477.00,457.06 L 468.50 456.50 L 475.50 452.70 C479.35,450.61 481.60,449.19 480.50,449.54 C474.61,451.46 462.18,456.53 460.10,457.88 L 457.69 459.43 ZM 462.60 467.79 C466.83,469.33 469.29,469.17 481.50,466.55 L 492.50 464.20 L 478.50 464.14 C468.61,464.09 463.80,464.46 462.10,465.40 L 459.70 466.73 ZM 557.00 397.42 C560.03,399.36 562.86,400.96 563.30,400.97 C563.73,400.99 561.48,398.53 558.30,395.52 C553.54,391.03 552.03,390.14 549.89,390.57 C548.43,390.86 544.90,390.19 541.89,389.05 C538.93,387.92 536.39,387.00 536.26,387.00 C536.13,387.00 536.13,388.01 536.26,389.25 C536.57,392.20 538.11,393.23 539.45,391.40 C540.32,390.21 541.12,390.15 543.79,391.08 C546.52,392.03 546.86,392.46 545.84,393.69 C544.79,394.95 545.11,395.07 548.06,394.53 C550.91,394.01 552.45,394.51 557.00,397.42 ZM 525.21 490.02 C530.00,491.15 535.22,491.16 534.52,490.04 C534.20,489.51 532.27,488.77 530.25,488.39 C528.22,488.01 524.81,486.43 522.67,484.87 C519.67,482.70 518.35,482.28 516.95,483.03 C515.95,483.56 513.73,484.00 512.01,484.00 C510.18,484.00 509.14,484.41 509.50,485.00 C509.84,485.55 511.97,486.00 514.23,486.00 C516.62,486.00 519.09,486.68 520.13,487.62 C521.11,488.51 523.40,489.59 525.21,490.02 ZM 531.02 341.53 C533.09,344.02 534.63,343.18 535.92,338.86 C537.36,334.07 536.56,333.04 531.36,333.02 C528.27,333.00 528.23,333.07 529.01,336.53 C529.44,338.47 530.35,340.72 531.02,341.53 ZM 546.50 464.48 C551.02,467.12 552.00,467.40 552.00,466.07 C552.00,464.71 549.28,462.22 546.99,461.50 C545.72,461.09 545.00,459.98 545.00,458.43 C545.00,456.50 544.48,456.00 542.50,456.00 C540.68,456.00 540.00,456.54 540.00,457.96 C540.00,460.25 541.06,461.31 546.50,464.48 ZM 527.22 448.50 C525.46,452.08 524.21,455.00 524.45,455.00 C524.68,455.00 526.37,452.91 528.19,450.36 C530.20,447.55 533.07,445.02 535.50,443.93 L 539.50 442.14 L 534.96 442.07 L 530.43 442.00 ZM 533.50 329.48 L 533.54 329.49 C539.56,330.56 541.23,330.86 542.83,330.63 C543.45,330.54 544.05,330.37 544.90,330.13 C546.95,329.55 546.45,329.19 541.44,327.61 C537.38,326.33 535.46,326.11 535.21,326.88 C535.00,327.50 532.96,328.05 530.67,328.12 C527.05,328.22 527.42,328.40 533.50,329.48 ZM 529.75 480.28 C531.44,482.15 531.51,482.15 531.87,480.36 C532.07,479.34 532.86,477.61 533.62,476.53 C535.55,473.77 535.35,473.00 532.70,473.00 C528.19,473.00 526.64,476.83 529.75,480.28 ZM 527.00 348.74 L 524.50 349.86 L 527.12 349.93 C528.57,349.97 531.16,349.72 532.89,349.37 C535.41,348.87 535.81,348.47 534.89,347.37 C534.27,346.62 533.33,346.00 532.81,346.00 C532.29,346.00 529.75,344.62 527.18,342.93 L 522.50 339.86 L 526.48 343.37 C528.66,345.30 530.24,347.04 529.98,347.24 C529.71,347.44 528.38,348.11 527.00,348.74 ZM 368.51 394.38 C369.46,395.82 370.62,397.00 371.10,397.00 C372.61,397.00 373.21,392.27 371.98,389.97 L 370.80 387.76 L 368.80 389.76 C366.88,391.67 366.87,391.87 368.51,394.38 ZM 340.07 412.96 C337.48,414.35 337.23,414.30 336.07,412.13 C335.29,410.68 335.52,409.84 337.05,408.46 C338.96,406.73 339.09,406.73 340.48,408.58 C342.41,411.13 342.36,411.74 340.07,412.96 ZM 514.71 326.02 C518.63,329.73 521.00,330.96 521.00,329.30 C521.00,327.66 514.43,322.00 512.55,322.02 C510.83,322.05 511.19,322.70 514.71,326.02 ZM 376.65 407.17 C378.37,409.07 382.00,409.69 382.00,408.08 C382.00,405.45 380.54,404.00 377.89,404.00 C374.57,404.00 374.34,404.61 376.65,407.17 ZM 547.18 457.45 C546.99,458.35 547.54,459.00 548.50,459.00 C549.53,459.00 550.02,458.34 549.81,457.25 C549.40,455.14 547.63,455.28 547.18,457.45 ZM 531.75 458.31 C535.03,459.17 535.38,459.00 533.44,457.53 C531.19,455.83 530.00,455.62 530.00,456.93 C530.00,457.44 530.79,458.06 531.75,458.31 ZM 380.34 329.91 C381.38,331.03 387.07,340.20 394.06,351.95 C387.28,340.65 381.33,330.97 380.34,329.91 Z" fill="rgb(25,43,77)"/>
<path d="M 415.41 390.98 C415.30,391.06 415.18,391.12 415.06,391.17 C414.54,391.35 416.14,394.81 418.61,398.86 C421.08,402.91 422.97,406.35 422.80,406.51 C422.64,406.67 414.88,410.32 405.56,414.62 C394.18,419.87 387.32,423.68 384.67,426.20 L 380.73 429.95 L 381.27 437.22 C382.19,449.63 380.78,451.21 361.06,459.93 C346.34,466.44 345.74,467.00 346.52,473.45 C347.29,479.81 346.89,480.33 335.26,487.92 C326.51,493.63 326.00,493.83 325.56,491.72 C325.30,490.50 323.24,474.05 320.96,455.17 C316.97,422.05 316.89,420.80 318.66,419.46 C319.67,418.69 320.82,418.05 321.22,418.03 C322.67,417.97 329.15,411.61 330.58,408.84 C331.40,407.27 332.89,403.40 333.91,400.24 C334.92,397.08 336.08,393.71 336.48,392.75 C337.18,391.09 330.18,391.00 197.62,391.00 C61.58,391.00 57.89,391.05 52.88,392.95 C57.83,391.07 61.10,391.00 138.51,391.00 L 219.00 391.00 L 219.00 313.68 C219.00,310.85 219.00,308.11 219.00,305.47 C218.99,242.52 218.99,233.10 222.46,225.20 C223.21,223.48 224.13,221.83 225.25,219.72 C226.98,216.45 230.98,211.45 234.45,208.22 C240.27,202.79 248.09,198.83 389.73,129.68 C471.76,89.62 541.27,56.21 544.19,55.44 C550.97,53.63 562.01,53.63 568.75,55.42 C571.64,56.19 641.11,89.60 723.13,129.66 C863.16,198.05 872.62,202.84 878.44,208.17 C882.09,211.51 885.94,216.28 887.79,219.76 C888.86,221.76 889.74,223.39 890.47,225.09 C894.00,233.30 894.00,243.02 894.00,302.65 L 894.00 372.38 L 890.43 366.44 C881.58,351.73 873.37,343.75 858.54,335.44 C853.69,332.72 843.13,325.51 835.07,319.41 C827.01,313.32 817.93,306.74 814.90,304.80 C808.82,300.91 805.17,296.70 799.66,287.20 C795.36,279.78 788.13,263.26 785.05,253.81 C783.86,250.13 781.58,245.49 780.00,243.50 C771.97,233.39 754.97,225.00 742.51,225.00 C736.47,225.00 730.93,228.10 722.10,236.43 C714.83,243.28 713.44,243.99 709.94,242.67 C707.55,241.77 706.02,242.14 699.32,245.26 C685.60,251.66 676.54,254.90 669.21,256.04 C664.82,256.72 651.53,257.01 634.78,256.81 C617.44,256.60 610.09,256.64 603.39,254.56 C597.79,252.83 592.65,249.62 582.50,243.54 C568.90,235.39 560.17,228.92 553.59,222.13 L 549.69 218.09 L 561.36 224.30 C567.78,227.71 578.13,233.22 584.36,236.54 L 595.68 242.58 L 589.98 235.54 C581.11,224.59 562.41,196.16 558.65,187.89 C556.78,183.79 553.20,174.60 550.69,167.47 C548.19,160.34 544.74,150.73 543.03,146.12 C541.32,141.51 540.09,137.57 540.30,137.37 C540.79,136.87 552.59,151.89 557.68,159.50 C559.89,162.80 563.63,169.02 565.99,173.33 C574.16,188.27 581.57,195.54 598.50,205.22 C613.47,213.78 620.70,218.83 639.33,233.73 L 657.16 248.00 L 665.33 247.99 L 673.50 247.98 L 667.13 244.43 C660.09,240.51 653.74,236.02 641.00,225.95 C636.33,222.25 630.79,218.52 628.70,217.64 C623.94,215.66 610.33,206.82 598.36,197.95 C587.10,189.60 582.78,184.27 562.25,153.50 C544.78,127.29 540.15,122.11 529.37,116.69 C516.63,110.28 499.24,106.24 490.21,107.60 C484.43,108.46 482.23,110.48 467.59,128.32 C460.74,136.67 450.55,148.44 444.94,154.47 C427.83,172.88 422.20,182.01 405.52,218.47 C390.48,251.36 390.27,251.67 371.16,270.94 C353.98,288.26 346.71,293.97 335.38,299.05 C325.31,303.57 323.74,305.08 314.34,319.29 C308.07,328.77 302.19,336.03 293.52,345.00 C286.87,351.88 278.36,361.00 274.59,365.29 C267.07,373.85 259.67,379.55 247.50,386.16 L 239.50 390.50 L 288.19 390.76 L 336.89 391.02 L 341.70 386.21 C344.55,383.36 348.80,380.45 352.10,379.08 L 357.70 376.76 L 357.65 367.06 C357.62,359.12 357.97,356.74 359.60,353.94 C361.96,349.91 367.97,346.01 377.11,342.59 L 383.72 340.12 L 398.61 365.24 C409.06,382.86 413.86,390.29 415.41,390.98 ZM 567.51 888.55 C559.10,890.54 549.85,890.26 542.00,887.79 C540.08,887.18 478.20,857.22 404.50,821.22 C330.80,785.21 263.75,752.48 255.50,748.48 C246.26,744.00 238.61,739.54 235.57,736.86 C227.64,729.87 222.08,720.10 219.57,708.75 L 218.96 706.00 L 140.73 705.98 C79.94,705.97 61.73,705.69 57.02,704.68 C66.92,705.59 176.90,705.80 559.02,705.67 L 1056.50 705.50 L 975.26 705.78 L 894.02 706.06 L 893.42 708.78 C890.92,720.14 885.26,730.04 877.41,736.80 C874.71,739.13 866.65,743.90 859.50,747.41 C679.06,835.88 572.57,887.36 567.51,888.55 ZM 448.10 436.29 C447.75,435.69 447.39,435.08 447.02,434.47 L 435.24 414.50 L 437.33 411.50 C438.48,409.85 442.25,404.56 445.72,399.75 L 452.01 391.00 L 451.81 391.00 L 456.31 384.75 L 460.81 378.50 L 457.66 377.65 C443.50,373.85 441.06,372.74 429.66,364.89 C417.04,356.21 414.85,353.68 412.42,345.00 C408.60,331.36 404.42,319.26 398.07,303.50 L 391.21 286.50 L 393.71 286.17 C397.67,285.66 401.70,287.87 406.47,293.18 C411.57,298.85 413.72,304.07 418.00,321.18 C424.37,346.67 432.81,357.78 453.41,367.82 C462.29,372.14 464.53,372.88 465.51,371.81 C466.17,371.09 483.48,346.96 503.97,318.20 L 541.23 265.89 L 587.86 328.20 L 634.50 390.50 L 720.75 391.02 L 729.20 375.76 C740.01,356.23 747.66,343.92 754.66,334.78 C757.72,330.78 761.07,325.70 762.09,323.50 C764.47,318.40 764.60,307.07 762.38,298.64 C761.05,293.58 760.89,289.52 761.44,275.50 C762.23,255.37 763.53,245.05 765.50,243.07 C766.75,241.82 767.21,241.88 769.03,243.53 C773.08,247.20 779.89,258.67 788.87,277.00 C802.17,304.13 808.59,311.21 834.00,326.71 C866.47,346.52 867.63,347.51 885.55,370.59 C893.43,380.74 894.00,381.80 894.00,386.22 L 894.00 390.95 L 976.25 391.23 L 1058.50 391.50 L 846.76 391.24 L 635.03 390.98 L 657.95 421.74 C670.55,438.66 699.05,476.80 721.28,506.50 L 761.69 560.50 L 653.77 560.75 C594.41,560.89 497.48,560.89 438.37,560.75 L 330.90 560.50 L 381.20 490.07 C407.66,453.01 429.92,422.37 432.26,419.75 C433.13,420.11 438.71,428.69 444.91,439.24 C446.94,442.70 448.91,445.96 450.66,448.80 C453.65,454.01 455.76,457.95 455.65,458.35 C455.53,458.82 450.66,461.34 444.82,463.95 C438.99,466.55 432.05,469.95 429.40,471.51 C425.01,474.08 424.76,474.41 426.64,475.25 C428.12,475.91 432.26,475.18 441.54,472.58 C459.27,467.64 465.00,467.88 465.00,473.58 C465.00,474.78 465.74,476.37 466.65,477.13 C468.92,479.01 480.31,480.25 493.38,480.04 C503.55,479.88 504.22,479.98 503.51,481.68 C502.55,484.02 502.54,484.56 503.40,490.25 C503.91,493.59 503.78,495.00 502.97,495.00 C502.33,495.00 501.58,494.10 501.29,493.00 C500.79,491.07 499.86,490.59 497.30,490.91 C496.64,491.00 495.60,490.13 494.99,488.98 C494.19,487.48 493.31,487.09 491.81,487.56 C490.54,487.96 489.43,487.69 488.91,486.86 C487.91,485.23 471.00,484.66 471.00,486.25 C471.00,486.79 470.09,487.00 468.98,486.71 C467.82,486.40 466.25,486.89 465.30,487.84 C464.38,488.75 462.70,489.50 461.57,489.50 C460.39,489.50 459.08,490.46 458.52,491.74 C457.98,492.97 456.87,493.87 456.06,493.74 C455.24,493.61 453.97,494.74 453.24,496.25 C452.50,497.76 451.24,499.00 450.45,499.00 C449.65,499.00 448.95,499.56 448.88,500.25 C448.61,503.24 448.41,503.72 446.84,505.30 C445.89,506.26 445.40,507.82 445.71,508.98 C446.00,510.09 445.78,511.00 445.22,511.00 C443.64,511.00 442.79,514.25 444.15,515.09 C445.01,515.62 445.06,516.24 444.34,517.17 C442.67,519.32 442.97,528.77 444.73,529.45 C445.88,529.89 445.96,530.34 445.08,531.41 C444.19,532.47 444.34,533.20 445.72,534.58 C446.70,535.56 447.56,536.85 447.63,537.43 C447.71,538.02 447.82,539.01 447.88,539.63 C447.95,540.26 448.96,541.02 450.13,541.32 C451.46,541.67 452.05,542.42 451.71,543.32 C451.03,545.07 452.80,547.00 455.08,547.00 C456.01,547.00 457.00,547.90 457.29,549.00 C457.64,550.35 458.65,551.00 460.41,551.00 C462.05,551.00 463.00,551.55 463.00,552.50 C467.65,554.00 469.00,554.40 469.00,554.88 C469.00,556.25 472.85,556.93 473.29,555.64 C473.57,554.81 474.06,554.80 475.09,555.60 C477.23,557.26 486.76,557.07 487.42,555.36 C487.78,554.41 488.77,554.16 490.47,554.58 C492.26,555.03 493.16,554.75 493.60,553.61 C493.94,552.72 495.33,552.00 496.70,552.00 C498.32,552.00 499.36,551.32 499.70,550.06 C499.98,548.99 501.17,547.97 502.35,547.81 C503.62,547.63 504.62,546.66 504.79,545.47 C504.95,544.35 506.08,543.00 507.29,542.47 C508.51,541.94 509.50,540.79 509.50,539.93 C509.50,539.07 510.25,537.62 511.16,536.70 C512.11,535.74 512.60,534.18 512.29,533.02 C512.00,531.91 512.22,531.00 512.78,531.00 C514.34,531.00 515.16,527.90 513.97,526.46 C513.36,525.73 513.29,524.94 513.81,524.62 C515.29,523.70 514.91,513.18 513.37,512.59 C512.46,512.24 512.23,511.11 512.64,509.04 C513.15,506.52 512.93,506.00 511.39,506.00 C510.28,506.00 512.15,504.24 516.01,501.66 C521.80,497.78 523.31,497.25 530.00,496.70 C546.83,495.33 548.84,494.59 559.38,485.89 C568.54,478.33 569.00,477.77 569.00,474.05 C569.00,471.08 569.60,469.68 571.50,468.18 C572.88,467.10 574.00,465.89 574.00,465.50 C574.00,465.11 572.61,463.03 570.91,460.89 C567.84,457.01 567.82,456.94 568.50,448.24 C569.16,439.74 571.47,426.19 572.43,425.24 C572.69,424.98 577.75,428.21 583.68,432.42 C593.14,439.13 594.49,440.45 594.62,443.11 C594.71,444.98 594.20,446.37 593.30,446.71 C592.22,447.13 592.00,448.17 592.46,450.64 C592.85,452.71 592.69,454.00 592.05,454.00 C591.47,454.00 591.00,454.90 591.00,456.00 C591.00,457.10 591.45,458.00 592.00,458.00 C592.55,458.00 593.00,458.90 593.00,460.00 C593.00,461.10 592.59,462.00 592.09,462.00 C591.60,462.00 591.42,462.90 591.71,464.00 C592.00,465.10 592.68,466.00 593.23,466.00 C593.78,466.00 593.94,467.08 593.60,468.45 C593.16,470.21 593.58,471.47 595.10,472.88 C596.26,473.96 596.97,475.24 596.67,475.72 C595.92,476.93 597.65,479.50 599.21,479.50 C599.92,479.50 600.51,480.18 600.53,481.00 C600.57,483.42 601.97,485.00 604.08,485.00 C605.26,485.00 606.43,486.00 607.00,487.50 C607.67,489.26 608.70,490.00 610.48,490.00 C611.97,490.00 613.00,490.57 613.00,491.39 C613.00,493.13 615.18,494.03 617.77,493.35 C619.02,493.02 619.96,493.45 620.37,494.53 C620.84,495.75 621.70,496.04 623.50,495.59 C624.87,495.25 626.89,495.53 628.02,496.23 C629.68,497.26 630.22,497.25 630.88,496.18 C631.46,495.25 632.80,495.06 635.35,495.54 C637.88,496.01 639.00,495.86 639.00,495.04 C639.00,494.39 640.01,493.94 641.25,494.04 C645.08,494.35 646.00,494.05 646.00,492.50 C646.00,491.49 647.01,491.00 649.09,491.00 C651.35,491.00 652.33,490.46 652.71,489.00 C653.00,487.90 654.05,487.00 655.06,487.00 C656.97,487.00 658.43,485.39 658.47,483.22 C658.49,482.52 659.62,481.37 661.00,480.68 C662.74,479.80 663.40,478.74 663.19,477.21 C662.99,475.80 663.40,475.00 664.33,475.00 C666.11,475.00 667.16,472.57 666.31,470.38 C665.93,469.39 666.36,468.38 667.41,467.79 C668.69,467.08 668.96,466.09 668.48,463.92 C668.08,462.10 668.25,461.00 668.92,461.00 C670.30,461.00 670.34,457.33 668.97,456.48 C668.38,456.12 668.21,454.42 668.56,452.54 C668.94,450.51 668.74,448.96 668.05,448.53 C667.43,448.15 667.18,447.02 667.49,446.02 C667.83,444.97 667.32,443.46 666.28,442.42 C665.30,441.44 664.50,439.70 664.50,438.57 C664.50,437.38 663.54,436.08 662.25,435.51 C661.01,434.97 660.00,433.79 660.00,432.89 C660.00,431.98 659.33,430.68 658.50,430.00 C657.67,429.32 657.00,429.09 657.00,429.50 C657.00,429.91 656.33,429.69 655.51,429.01 C654.69,428.33 654.25,427.40 654.54,426.94 C655.19,425.88 651.90,424.13 650.32,424.70 C649.67,424.93 648.62,424.15 647.99,422.97 C647.11,421.34 646.25,420.97 644.40,421.44 C642.67,421.87 641.77,421.58 641.34,420.44 C640.87,419.21 639.93,418.98 637.36,419.46 C635.29,419.85 634.00,419.69 634.00,419.05 C634.00,417.69 630.31,417.68 629.48,419.03 C629.11,419.63 627.41,419.79 625.42,419.42 C623.05,418.97 622.00,419.15 622.00,420.00 C622.00,420.79 621.15,421.00 619.57,420.61 C617.96,420.20 616.56,420.58 615.39,421.75 C614.42,422.71 612.70,423.50 611.57,423.50 C610.38,423.50 609.08,424.46 608.51,425.75 C607.97,426.99 606.79,428.00 605.89,428.00 C603.98,428.00 601.71,430.37 602.68,431.34 C603.04,431.70 602.81,432.00 602.16,432.00 C601.52,432.00 595.97,428.10 589.84,423.33 L 578.70 414.67 L 588.60 409.68 L 598.50 404.69 L 613.77 404.21 C622.17,403.95 629.23,403.43 629.46,403.07 C630.55,401.31 627.54,400.03 616.53,397.56 C600.89,394.06 595.35,394.55 581.11,400.69 L 570.71 405.17 L 561.48 395.98 C553.25,387.78 552.03,386.91 550.18,387.90 C548.56,388.77 547.03,388.59 543.14,387.06 C539.83,385.75 536.98,385.29 534.57,385.68 C531.63,386.16 529.92,385.64 525.24,382.82 C522.08,380.93 518.26,378.85 516.74,378.20 C511.93,376.16 511.30,372.96 514.35,366.15 C515.81,362.91 517.00,358.87 517.00,357.18 C517.00,352.82 518.34,352.51 523.82,355.59 C529.97,359.05 532.82,358.45 535.85,353.06 C537.64,349.87 537.88,348.64 537.01,347.02 C536.22,345.54 536.25,343.84 537.14,340.74 C538.67,335.36 539.72,334.01 542.37,333.95 C543.54,333.93 546.49,332.87 548.91,331.60 L 553.33 329.29 L 545.91 327.13 C541.84,325.93 533.80,323.14 528.06,320.92 C518.14,317.09 517.47,316.96 514.56,318.38 C512.88,319.20 510.73,320.11 509.78,320.39 C508.83,320.68 507.81,322.17 507.50,323.71 C507.19,325.24 506.43,327.85 505.81,329.50 C505.19,331.15 504.72,333.96 504.77,335.75 C504.84,338.29 504.45,339.00 502.98,339.00 C500.96,339.00 484.64,356.99 481.91,362.23 C481.03,363.91 479.14,365.89 477.70,366.65 C474.41,368.37 469.31,375.71 467.15,381.83 C466.24,384.40 464.19,388.21 462.60,390.29 C460.65,392.84 459.55,395.63 459.25,398.79 C458.86,402.88 459.25,404.16 462.15,408.45 C464.25,411.55 467.94,415.00 472.00,417.66 C475.58,420.00 479.85,423.22 481.50,424.82 C483.15,426.42 486.52,428.69 489.00,429.87 C497.40,433.87 501.13,438.79 497.30,440.84 C493.34,442.95 460.93,454.99 459.81,454.77 C459.79,454.75 459.77,454.74 459.74,454.72 C459.13,454.24 454.36,446.62 448.10,436.29 ZM 297.25 684.29 L 295.00 683.86 L 295.00 586.00 L 340.86 586.00 L 344.29 591.75 C346.18,594.91 352.36,605.50 358.01,615.28 C363.67,625.06 368.68,632.94 369.14,632.78 C369.60,632.63 375.99,622.15 383.34,609.50 L 396.70 586.50 L 443.00 585.96 L 443.00 683.88 L 438.75 684.49 C436.41,684.83 428.20,684.97 420.50,684.80 L 406.50 684.50 L 406.23 661.75 C406.08,649.24 405.57,639.00 405.08,639.00 C404.60,639.00 398.28,649.11 391.04,661.47 C378.44,682.97 377.73,683.96 374.35,684.59 C368.40,685.71 360.71,684.36 359.00,681.89 C358.17,680.70 352.39,670.90 346.15,660.11 C339.90,649.33 334.17,639.84 333.40,639.04 C332.20,637.78 332.00,640.86 332.00,660.68 C332.00,680.83 331.80,683.86 330.42,684.39 C328.67,685.06 300.82,684.98 297.25,684.29 ZM 480.36 684.01 C476.98,683.53 471.98,682.01 469.24,680.62 C463.26,677.59 456.41,670.12 455.02,665.12 C453.64,660.16 453.71,609.61 455.10,604.50 C456.65,598.84 465.05,590.87 472.38,588.13 C477.76,586.12 479.83,586.00 509.29,586.04 C532.39,586.08 541.45,586.43 544.17,587.40 C550.30,589.59 557.42,595.51 560.31,600.83 L 563.00 605.77 L 563.00 634.92 C563.00,667.94 562.95,668.21 555.53,675.42 C547.23,683.49 543.70,684.25 513.00,684.58 C498.42,684.74 483.74,684.48 480.36,684.01 ZM 724.91 684.02 C713.36,682.57 704.32,676.37 700.08,667.00 C698.19,662.83 698.04,660.50 698.03,635.00 C698.02,608.21 698.08,607.37 700.37,602.44 C703.26,596.26 709.56,590.68 716.71,588.01 C721.67,586.15 724.42,586.00 753.29,586.04 C776.93,586.08 785.42,586.42 788.30,587.44 C794.09,589.51 799.83,593.90 803.34,598.95 L 806.50 603.50 L 806.79 633.85 C807.07,663.11 807.01,664.35 804.95,668.61 C802.33,674.01 795.89,679.45 788.81,682.24 C783.98,684.14 781.14,684.35 757.50,684.59 C743.20,684.73 728.53,684.48 724.91,684.02 ZM 195.00 499.08 L 261.50 498.50 L 265.74 495.63 C271.66,491.61 275.43,483.81 274.77,476.95 C274.22,471.24 271.82,468.05 265.50,464.65 C261.70,462.61 259.86,462.48 228.50,462.00 L 195.50 461.50 L 195.22 447.20 L 194.94 432.89 L 233.72 433.22 C270.79,433.54 272.79,433.65 279.19,435.80 C298.70,442.35 311.02,459.22 310.99,479.36 C310.96,495.45 304.03,508.53 290.80,517.45 L 286.10 520.62 L 296.69 535.56 C302.51,543.78 308.83,552.64 310.72,555.25 L 314.17 560.00 L 274.17 560.00 L 251.45 527.50 L 241.73 527.21 L 232.00 526.93 L 232.00 561.00 L 195.00 561.00 ZM 977.50 558.97 C967.09,556.78 955.94,553.00 947.79,548.89 L 942.07 546.01 L 947.57 534.30 C950.60,527.86 953.27,522.39 953.51,522.15 C953.76,521.91 957.16,523.14 961.07,524.89 C980.75,533.70 1005.28,534.39 1014.11,526.40 C1018.69,522.25 1014.43,514.27 1006.22,511.61 C1003.62,510.77 995.09,508.53 987.25,506.63 C970.24,502.50 960.14,497.84 953.02,490.83 C944.63,482.57 942.25,475.51 944.04,464.21 C946.92,446.04 958.66,434.00 979.00,428.35 C984.14,426.93 989.07,426.56 1002.50,426.60 C1017.89,426.64 1020.31,426.89 1028.00,429.25 C1036.21,431.76 1044.14,434.94 1046.77,436.76 C1047.75,437.44 1046.76,440.73 1042.49,451.02 C1039.44,458.37 1036.80,464.54 1036.62,464.71 C1036.44,464.89 1033.42,463.69 1029.90,462.04 C1014.89,455.01 992.37,452.27 985.00,456.56 C981.92,458.36 981.47,459.13 981.26,463.05 C980.76,472.13 989.42,477.23 1015.39,483.11 C1031.46,486.75 1035.62,488.58 1042.38,494.97 C1053.00,505.02 1056.12,518.71 1050.94,532.50 C1047.63,541.31 1038.06,550.59 1028.00,554.74 C1012.54,561.12 994.79,562.60 977.50,558.97 ZM 105.00 463.04 L 85.25 462.77 L 65.50 462.50 L 64.95 433.00 L 183.00 433.00 L 183.00 463.00 L 142.00 463.00 L 142.00 561.00 L 105.00 561.00 ZM 838.00 430.00 L 875.00 430.00 L 875.00 527.00 L 938.00 527.00 L 938.00 558.00 L 838.00 558.00 ZM 613.75 684.32 C612.12,683.89 612.00,681.18 612.00,645.43 L 612.00 607.00 L 574.00 607.00 L 574.00 586.00 L 687.00 586.00 L 687.00 607.00 L 650.02 607.00 L 649.76 645.75 L 649.50 684.50 L 632.50 684.65 C623.15,684.73 614.71,684.58 613.75,684.32 ZM 795.00 430.00 C812.33,430.00 813.00,430.07 813.01,432.00 C813.01,433.10 813.02,461.00 813.02,494.00 C813.02,527.00 813.01,554.90 813.01,556.00 C813.00,557.93 812.33,558.00 795.00,558.00 L 777.00 558.00 L 777.00 430.00 ZM 753.00 390.64 C753.00,390.84 778.20,391.00 809.00,391.00 C839.80,391.00 864.99,390.66 864.98,390.25 C864.96,389.84 861.90,382.98 858.18,375.00 C850.11,357.73 843.61,347.56 837.35,342.43 C830.38,336.72 807.78,322.00 805.98,322.00 C801.45,322.00 787.90,334.09 784.13,341.50 C783.01,343.70 781.20,349.62 780.11,354.65 C776.77,370.10 770.56,379.45 758.84,386.68 C755.63,388.66 753.00,390.45 753.00,390.64 ZM 622.62 485.42 C612.01,482.03 605.32,475.34 602.35,465.14 C600.69,459.41 600.98,449.62 602.87,447.73 C604.22,446.38 619.61,457.34 621.51,461.02 C624.92,467.61 632.13,469.02 637.08,464.08 C640.91,460.25 641.03,455.38 637.41,451.08 C635.27,448.54 634.09,448.00 630.61,448.00 C628.29,448.00 625.94,448.46 625.37,449.03 C624.67,449.73 621.90,448.13 616.59,443.94 C608.96,437.93 608.87,437.80 610.67,435.81 C611.68,434.69 614.75,432.62 617.50,431.20 C624.40,427.63 636.43,427.42 642.72,430.77 C653.76,436.64 659.53,445.84 659.46,457.50 C659.43,462.77 658.83,465.71 657.04,469.42 C650.56,482.80 635.84,489.64 622.62,485.42 ZM 523.71 657.00 C524.60,655.23 524.97,648.44 524.99,633.68 C525.00,613.34 524.53,609.72 521.60,607.77 C521.00,607.36 515.26,607.02 508.86,607.02 C508.08,607.01 507.33,607.01 506.62,607.01 C500.45,606.98 496.98,606.96 495.00,608.67 C492.24,611.06 492.41,616.83 492.19,630.66 C492.01,641.57 492.14,651.95 492.48,653.72 C493.59,659.67 494.74,660.09 509.32,659.78 C522.19,659.51 522.47,659.45 523.71,657.00 ZM 767.44 657.78 C768.74,655.93 769.00,651.82 769.00,633.28 C769.00,631.68 769.00,630.18 769.01,628.77 C769.03,616.03 769.05,610.71 766.43,608.51 C764.57,606.94 761.35,606.96 755.84,606.99 C754.98,606.99 754.08,607.00 753.11,607.00 C752.12,607.00 751.20,606.99 750.32,606.99 C744.44,606.96 741.05,606.94 739.10,608.60 C736.45,610.87 736.47,616.23 736.49,628.89 C736.50,630.27 736.50,631.74 736.50,633.31 C736.50,635.05 736.50,636.68 736.49,638.21 C736.46,650.87 736.44,656.21 739.07,658.45 C740.99,660.08 744.31,660.05 750.05,660.01 C751.00,660.01 752.01,660.00 753.10,660.00 C765.18,660.00 765.97,659.88 767.44,657.78 ZM 470.04 543.42 C460.26,539.18 454.99,531.23 455.02,520.78 C455.07,506.46 464.74,496.97 479.22,497.02 C485.40,497.04 494.00,499.82 494.00,501.79 C494.00,502.29 491.68,504.64 488.85,507.03 C484.56,510.65 483.08,511.34 479.97,511.15 C475.42,510.88 470.47,514.58 469.51,518.95 C468.01,525.76 475.89,532.53 482.25,529.90 C485.33,528.62 488.99,523.73 489.00,520.89 C489.00,519.39 498.87,512.00 500.88,512.00 C502.35,512.00 503.00,514.78 503.00,521.12 C503.00,527.63 500.12,534.71 495.85,538.69 C489.64,544.47 477.56,546.68 470.04,543.42 ZM 517.61 422.42 C513.91,416.56 505.22,407.72 497.26,401.72 L 491.02 397.02 L 495.48 392.91 L 499.94 388.80 L 502.60 390.90 C504.07,392.06 505.77,393.00 506.38,393.01 C507.00,393.01 511.04,395.04 515.37,397.51 C519.69,399.98 524.19,402.01 525.37,402.03 C526.54,402.05 528.37,402.72 529.44,403.53 C532.55,405.88 536.50,405.39 537.82,402.50 C538.44,401.12 539.30,400.02 539.73,400.04 C540.15,400.06 542.00,402.11 543.83,404.60 C546.93,408.82 547.05,409.27 545.65,411.41 C544.52,413.14 542.85,413.86 538.87,414.33 C534.11,414.89 533.02,415.53 527.52,420.98 C524.18,424.29 521.23,427.00 520.97,427.00 C520.71,427.00 519.20,424.94 517.61,422.42 ZM 393.78 414.75 C392.99,413.51 390.37,409.12 387.98,405.00 C385.58,400.88 383.50,397.34 383.36,397.13 C383.22,396.93 381.73,397.25 380.05,397.83 C376.58,399.04 376.26,398.33 378.42,394.15 C379.74,391.60 379.62,391.03 376.84,386.20 C374.67,382.45 373.23,381.00 371.67,381.01 C369.44,381.01 360.00,388.39 360.00,390.12 C360.00,390.65 363.26,396.66 367.25,403.46 C371.43,410.60 373.06,413.82 375.67,415.32 C378.16,416.75 381.54,416.62 388.87,416.83 L 395.23 417.00 ZM 368.96 423.38 L 371.06 417.77 L 367.86 412.78 C364.80,408.01 364.51,407.82 361.08,408.40 C359.11,408.73 356.53,409.27 355.34,409.59 C353.76,410.03 352.85,409.60 352.01,408.02 C350.47,405.14 351.49,402.63 353.94,403.27 C355.13,403.59 356.68,402.90 358.02,401.48 C360.08,399.29 360.10,399.08 358.47,396.59 C357.54,395.17 356.01,394.00 355.08,394.00 C354.14,394.00 350.94,396.18 347.96,398.85 C345.19,401.34 343.69,402.66 343.41,404.21 C343.08,406.00 344.40,408.09 347.28,412.65 L 347.39 412.83 C349.84,416.70 349.93,416.74 354.19,415.92 C360.54,414.69 360.67,414.73 363.12,418.16 L 365.37 421.32 L 362.01 420.65 C359.36,420.12 358.17,420.43 356.38,422.11 C354.26,424.10 354.22,424.40 355.67,426.62 C356.96,428.58 358.08,429.00 362.04,429.00 L 366.86 429.00 ZM 412.17 745.35 C413.69,743.97 414.00,742.13 414.00,734.37 C414.00,725.62 413.85,724.95 411.59,723.46 C410.00,722.43 407.51,721.99 404.34,722.19 L 399.50 722.50 L 399.22 734.75 L 398.94 747.00 L 404.64 747.00 C408.54,747.00 410.92,746.48 412.17,745.35 ZM 580.93 744.37 C582.60,742.24 583.00,740.30 583.00,734.32 C583.00,727.78 582.71,726.62 580.55,724.45 C577.10,721.01 571.86,721.10 569.07,724.63 C567.43,726.72 567.00,728.70 567.00,734.20 C567.00,744.23 568.75,746.96 575.18,746.98 C577.97,747.00 579.35,746.37 580.93,744.37 ZM 625.26 739.75 L 627.70 732.50 L 630.04 739.75 C631.34,743.74 632.91,747.00 633.54,747.00 C635.03,747.00 640.20,723.82 638.98,722.59 C637.83,721.43 636.67,724.51 634.95,733.26 C634.22,736.98 633.35,739.68 633.00,739.26 C632.66,738.84 631.58,735.89 630.62,732.69 C629.58,729.25 628.38,727.03 627.68,727.26 C627.03,727.47 625.61,730.19 624.52,733.32 C623.43,736.44 622.27,739.00 621.93,739.00 C621.60,739.00 620.72,735.83 619.99,731.96 C618.69,725.03 616.80,720.83 615.79,722.60 C615.35,723.37 619.15,742.19 620.47,745.75 C621.49,748.49 622.95,746.66 625.26,739.75 ZM 402.00 725.00 L 405.96 725.00 C410.88,725.00 412.00,726.76 412.00,734.50 C412.00,742.24 410.88,744.00 405.96,744.00 L 402.00 744.00 ZM 421.78 735.61 L 422.07 724.89 L 426.28 725.19 C430.29,725.48 430.52,725.67 430.83,728.96 C431.20,732.82 429.21,735.00 425.31,735.00 C424.04,735.00 423.00,735.45 423.00,736.00 C423.00,736.55 423.82,737.00 424.83,737.00 C426.05,737.00 427.44,738.68 429.00,742.00 C430.29,744.75 431.94,747.00 432.67,747.00 L 432.70 747.00 C433.25,747.00 433.61,747.00 433.78,746.82 C434.10,746.45 433.61,745.35 432.12,742.01 L 432.08 741.92 C430.18,737.68 430.18,737.59 432.08,735.18 C434.60,731.96 434.57,726.57 432.00,724.00 C430.48,722.48 428.67,722.00 424.50,722.00 L 419.00 722.00 L 419.00 734.58 C419.00,744.20 419.29,747.07 420.25,746.75 C421.12,746.46 421.59,743.09 421.78,735.61 ZM 570.67 743.33 C569.47,742.14 569.93,727.47 571.20,726.20 C571.86,725.54 573.57,725.00 575.00,725.00 C579.03,725.00 580.00,726.77 580.00,734.12 C580.00,743.13 579.57,744.00 575.06,744.00 C573.01,744.00 571.03,743.70 570.67,743.33 ZM 525.21 738.38 L 525.50 729.76 L 530.29 738.38 C532.93,743.12 535.52,747.00 536.04,747.00 C536.60,747.00 537.00,741.78 537.00,734.50 C537.00,719.91 535.22,717.30 534.79,731.25 L 534.50 740.50 L 531.61 735.01 C526.95,726.16 524.00,721.88 522.96,722.52 C522.43,722.85 522.00,728.47 522.00,735.06 C522.00,744.87 522.26,747.00 523.46,747.00 C524.61,747.00 524.98,745.14 525.21,738.38 ZM 359.42 444.47 C359.93,442.45 358.60,439.47 353.08,430.21 L 352.75 429.66 C345.72,417.87 344.03,415.03 342.75,415.21 C342.33,415.27 341.95,415.66 341.43,416.16 C339.85,417.72 340.22,418.64 347.20,430.66 C347.57,431.31 347.93,431.93 348.28,432.53 C355.03,444.15 357.17,447.83 358.21,447.55 C358.74,447.40 358.99,446.19 359.42,444.47 ZM 590.21 738.25 L 590.50 729.50 L 595.30 738.25 C597.94,743.06 600.53,747.00 601.05,747.00 C601.60,747.00 602.00,741.71 602.00,734.50 C602.00,719.91 600.22,717.30 599.79,731.25 L 599.50 740.50 L 596.61 735.01 C591.95,726.16 589.00,721.88 587.96,722.52 C587.43,722.85 587.00,728.47 587.00,735.06 C587.00,744.87 587.26,747.00 588.46,747.00 C589.61,747.00 589.98,745.13 590.21,738.25 ZM 458.21 738.25 L 458.50 729.50 L 463.44 738.25 C466.15,743.06 468.98,747.00 469.72,747.00 C471.55,747.00 471.13,722.87 469.29,722.26 C468.41,721.97 468.00,724.38 467.79,730.96 L 467.50 740.07 L 462.68 731.03 C460.03,726.07 457.44,722.00 456.93,722.00 C456.41,722.00 456.00,727.48 456.00,734.50 C456.00,748.80 457.76,751.80 458.21,738.25 ZM 382.65 737.43 C384.50,732.18 386.04,729.12 386.39,730.00 C387.23,732.14 391.00,743.26 391.00,743.60 C391.00,743.76 388.90,744.03 386.33,744.20 C383.72,744.37 381.47,745.05 381.24,745.75 C380.94,746.67 382.60,747.00 387.42,747.00 C392.50,747.00 394.00,746.67 394.00,745.55 C394.00,742.53 386.62,721.96 385.65,722.28 C384.75,722.58 377.00,744.11 377.00,746.30 C377.00,746.78 377.56,746.99 378.25,746.77 C378.94,746.54 380.92,742.34 382.65,737.43 ZM 480.54 738.75 C482.03,734.21 483.59,730.13 484.00,729.67 C484.42,729.22 485.84,732.23 487.18,736.38 L 489.60 743.91 L 485.13 744.20 C482.67,744.37 480.47,745.06 480.24,745.75 C479.94,746.67 481.60,747.00 486.42,747.00 C490.04,747.00 493.00,746.65 493.00,746.22 C493.00,744.18 485.25,722.58 484.42,722.31 C483.47,721.99 476.00,742.56 476.00,745.47 C476.00,749.34 478.07,746.27 480.54,738.75 ZM 729.17 745.35 C731.49,743.25 731.53,738.78 729.25,736.77 C728.29,735.93 725.56,734.26 723.19,733.06 C719.51,731.22 718.92,730.50 719.19,728.20 C719.47,725.77 719.98,725.45 724.27,725.00 C730.29,724.37 730.48,722.60 724.57,722.20 C719.50,721.85 715.99,724.34 716.02,728.25 C716.04,731.58 717.25,732.97 722.64,735.88 C726.45,737.94 727.50,739.04 727.50,741.00 C727.50,743.30 727.06,743.54 722.08,744.00 C719.02,744.28 716.48,745.04 716.24,745.75 C715.58,747.76 726.89,747.41 729.17,745.35 ZM 450.76 745.75 C450.53,745.05 448.28,744.37 445.67,744.20 L 441.00 743.89 L 441.00 725.00 L 446.00 725.00 C449.85,725.00 451.00,724.64 451.00,723.45 C451.00,722.19 449.85,721.96 444.75,722.20 L 438.50 722.50 L 438.21 733.44 C438.06,739.45 438.16,744.96 438.43,745.69 C439.13,747.49 451.35,747.56 450.76,745.75 ZM 676.76 745.75 C676.53,745.05 674.28,744.37 671.67,744.20 L 667.00 743.89 L 667.00 725.00 L 672.00 725.00 C675.85,725.00 677.00,724.64 677.00,723.45 C677.00,722.19 675.85,721.96 670.75,722.20 L 664.50 722.50 L 664.35 733.42 C664.26,739.43 664.42,744.94 664.70,745.67 C665.40,747.49 677.35,747.57 676.76,745.75 ZM 554.76 745.75 C554.53,745.05 552.28,744.37 549.67,744.20 L 545.00 743.89 L 545.00 725.11 L 549.52 724.80 C556.06,724.36 555.04,722.50 548.25,722.50 L 542.50 722.50 L 542.22 734.75 L 541.94 747.00 L 548.55 747.00 C553.40,747.00 555.06,746.67 554.76,745.75 ZM 693.76 745.75 C693.53,745.05 691.28,744.37 688.67,744.20 L 684.00 743.89 L 684.00 725.00 L 689.00 725.00 C692.78,725.00 694.00,724.63 694.00,723.50 C694.00,722.33 692.67,722.00 688.00,722.00 L 682.00 722.00 L 682.00 747.00 L 688.08 747.00 C692.50,747.00 694.05,746.66 693.76,745.75 ZM 710.76 745.75 C710.53,745.06 708.48,744.36 706.21,744.19 L 702.07 743.89 L 701.78 733.28 C701.59,725.88 701.12,722.54 700.25,722.25 C699.29,721.93 699.00,724.80 699.00,734.42 L 699.00 747.00 L 705.08 747.00 C709.50,747.00 711.05,746.66 710.76,745.75 ZM 659.78 734.75 C659.61,727.23 659.11,722.59 658.50,722.73 C657.95,722.86 657.36,725.00 657.20,727.48 L 656.89 732.00 L 652.95 732.00 C650.11,732.00 649.00,732.42 649.00,733.50 C649.00,734.58 650.11,735.00 653.00,735.00 L 657.00 735.00 L 657.00 741.00 C657.00,745.72 657.33,747.00 658.53,747.00 C659.84,747.00 660.02,745.20 659.78,734.75 ZM 509.76 745.75 C509.53,745.05 507.28,744.37 504.67,744.20 L 500.00 743.89 L 500.00 732.95 C500.00,726.32 499.61,722.00 499.00,722.00 C498.39,722.00 498.00,726.83 498.00,734.50 L 498.00 747.00 L 504.08 747.00 C508.50,747.00 510.05,746.66 509.76,745.75 ZM 517.50 734.50 C517.50,725.92 517.16,722.55 516.25,722.25 C515.29,721.93 515.00,724.81 515.00,734.50 C515.00,744.19 515.29,747.07 516.25,746.75 C517.16,746.45 517.50,743.08 517.50,734.50 ZM 647.00 734.50 C647.00,726.83 646.61,722.00 646.00,722.00 C645.39,722.00 645.00,726.83 645.00,734.50 C645.00,742.17 645.39,747.00 646.00,747.00 C646.61,747.00 647.00,742.17 647.00,734.50 ZM 368.51 394.38 C366.87,391.87 366.88,391.67 368.80,389.76 L 370.80 387.76 L 371.98 389.97 C373.21,392.27 372.61,397.00 371.10,397.00 C370.62,397.00 369.46,395.82 368.51,394.38 ZM 340.07 412.96 C342.36,411.74 342.41,411.13 340.48,408.58 C339.09,406.73 338.96,406.73 337.05,408.46 C335.52,409.84 335.29,410.68 336.07,412.13 C337.23,414.30 337.48,414.35 340.07,412.96 ZM 376.65 407.17 C374.34,404.61 374.57,404.00 377.89,404.00 C380.54,404.00 382.00,405.45 382.00,408.08 C382.00,409.69 378.37,409.07 376.65,407.17 ZM 677.00 733.50 C677.00,732.42 675.89,732.00 673.00,732.00 C670.11,732.00 669.00,732.42 669.00,733.50 C669.00,734.58 670.11,735.00 673.00,735.00 C675.89,735.00 677.00,734.58 677.00,733.50 ZM 694.00 733.50 C694.00,732.42 692.89,732.00 690.00,732.00 C687.11,732.00 686.00,732.42 686.00,733.50 C686.00,734.58 687.11,735.00 690.00,735.00 C692.89,735.00 694.00,734.58 694.00,733.50 ZM 451.00 733.50 C451.00,732.42 449.89,732.00 447.00,732.00 C444.11,732.00 443.00,732.42 443.00,733.50 C443.00,734.58 444.11,735.00 447.00,735.00 C449.89,735.00 451.00,734.58 451.00,733.50 ZM 554.50 733.50 C554.50,732.34 549.52,731.59 547.35,732.42 C546.54,732.73 546.17,733.46 546.53,734.05 C547.34,735.37 554.50,734.87 554.50,733.50 ZM 609.11 399.96 C615.13,399.83 615.92,399.58 614.00,398.74 C613.98,398.73 613.96,398.72 613.94,398.71 C621.96,400.45 623.43,401.49 616.00,400.47 C614.19,400.22 611.60,400.04 609.11,399.96 ZM 611.11 398.13 C608.72,397.82 605.33,397.61 602.00,397.59 C599.60,397.58 597.77,397.59 596.20,397.68 C601.02,396.91 605.64,397.11 611.11,398.13 ZM 1063.16 702.24 C1066.83,700.43 1069.96,698.26 1072.62,695.62 C1069.72,698.55 1066.26,700.92 1062.12,702.86 L 1057.39 705.08 ZM 415.99 390.12 C415.86,389.53 414.01,386.12 411.21,381.20 C411.73,382.09 412.24,382.97 412.75,383.84 C414.76,387.41 416.00,389.72 416.00,390.01 C416.00,390.05 416.00,390.08 415.99,390.12 ZM 43.84 698.72 C39.37,695.36 35.81,690.82 33.10,685.05 C35.78,690.75 39.38,695.33 43.84,698.72 ZM 594.07 400.36 C592.99,400.48 592.33,400.73 592.49,400.98 C592.30,400.68 592.46,400.49 594.07,400.36 ZM 595.41 400.28 C596.49,400.23 597.94,400.18 599.87,400.14 C598.05,400.20 596.39,400.25 595.41,400.28 ZM 1082.08 680.40 L 1082.50 679.50 L 1082.50 679.54 Z" fill="rgb(230,151,38)"/>
<path d="M 0.00 467.50 L 0.00 0.00 L 560.50 0.00 L 1121.00 0.00 L 1121.00 467.50 L 1121.00 935.00 L 560.50 935.00 L 0.00 935.00 L 0.00 467.50 ZM 567.51 888.55 C572.57,887.36 679.06,835.88 859.50,747.41 C866.65,743.90 874.71,739.13 877.41,736.80 C885.26,730.04 890.92,720.14 893.42,708.78 L 894.02 706.06 L 975.26 705.78 L 1056.50 705.50 L 1062.12 702.86 C1070.03,699.16 1075.45,693.87 1079.24,686.16 L 1082.50 679.54 L 1082.80 552.02 C1083.11,421.29 1083.00,416.85 1079.28,409.51 C1076.26,403.56 1071.06,398.31 1064.83,394.93 L 1058.50 391.50 L 976.25 391.23 L 894.00 390.95 L 894.00 386.22 C894.00,381.80 893.43,380.74 885.55,370.59 C867.63,347.51 866.47,346.52 834.00,326.71 C808.59,311.21 802.17,304.13 788.87,277.00 C779.89,258.67 773.08,247.20 769.03,243.53 C767.21,241.88 766.75,241.82 765.50,243.07 C763.53,245.05 762.23,255.37 761.44,275.50 C760.89,289.52 761.05,293.58 762.38,298.64 C764.60,307.07 764.47,318.40 762.09,323.50 C761.07,325.70 757.72,330.78 754.66,334.78 C747.66,343.92 740.01,356.23 729.20,375.76 L 720.75 391.02 L 677.62 390.76 L 634.50 390.50 L 587.86 328.20 L 541.23 265.89 L 503.97 318.20 C483.48,346.96 466.17,371.09 465.51,371.81 C464.53,372.88 462.29,372.14 453.41,367.82 C432.81,357.78 424.37,346.67 418.00,321.18 C413.72,304.07 411.57,298.85 406.47,293.18 C401.70,287.87 397.67,285.66 393.71,286.17 L 391.21 286.50 L 398.07 303.50 C404.42,319.26 408.60,331.36 412.42,345.00 C414.85,353.68 417.04,356.21 429.66,364.89 C441.06,372.74 443.50,373.85 457.66,377.65 L 460.81 378.50 L 456.31 384.75 L 451.81 391.00 L 436.66 390.99 L 421.50 390.97 L 403.50 360.33 C393.60,343.47 385.27,328.51 385.00,327.09 C384.63,325.20 383.78,324.42 381.87,324.20 C378.09,323.76 377.31,326.65 380.34,329.91 C382.96,332.73 416.00,388.57 416.00,390.18 C416.00,393.51 411.83,387.53 398.61,365.24 L 383.72 340.12 L 377.11 342.59 C367.97,346.01 361.96,349.91 359.60,353.94 C357.97,356.74 357.62,359.12 357.65,367.06 L 357.70 376.76 L 352.10 379.08 C348.80,380.45 344.55,383.36 341.70,386.21 L 336.89 391.02 L 288.19 390.76 L 239.50 390.50 L 247.50 386.16 C259.67,379.55 267.07,373.85 274.59,365.29 C278.36,361.00 286.87,351.88 293.52,345.00 C302.19,336.03 308.07,328.77 314.34,319.29 C323.74,305.08 325.31,303.57 335.38,299.05 C346.71,293.97 353.98,288.26 371.16,270.94 C390.27,251.67 390.48,251.36 405.52,218.47 C422.20,182.01 427.83,172.88 444.94,154.47 C450.55,148.44 460.74,136.67 467.59,128.32 C482.23,110.48 484.43,108.46 490.21,107.60 C499.24,106.24 516.63,110.28 529.37,116.69 C540.15,122.11 544.78,127.29 562.25,153.50 C582.78,184.27 587.10,189.60 598.36,197.95 C610.33,206.82 623.94,215.66 628.70,217.64 C630.79,218.52 636.33,222.25 641.00,225.95 C653.74,236.02 660.09,240.51 667.13,244.43 L 673.50 247.98 L 665.33 247.99 L 657.16 248.00 L 639.33 233.73 C620.70,218.83 613.47,213.78 598.50,205.22 C581.57,195.54 574.16,188.27 565.99,173.33 C563.63,169.02 559.89,162.80 557.68,159.50 C552.59,151.89 540.79,136.87 540.30,137.37 C540.09,137.57 541.32,141.51 543.03,146.12 C544.74,150.73 548.19,160.34 550.69,167.47 C553.20,174.60 556.78,183.79 558.65,187.89 C562.41,196.16 581.11,224.59 589.98,235.54 L 595.68 242.58 L 584.36 236.54 C578.13,233.22 567.78,227.71 561.36,224.30 L 549.69 218.09 L 553.59 222.13 C560.17,228.92 568.90,235.39 582.50,243.54 C604.78,256.89 602.94,256.42 634.78,256.81 C651.53,257.01 664.82,256.72 669.21,256.04 C676.54,254.90 685.60,251.66 699.32,245.26 C706.02,242.14 707.55,241.77 709.94,242.67 C713.44,243.99 714.83,243.28 722.10,236.43 C730.93,228.10 736.47,225.00 742.51,225.00 C754.97,225.00 771.97,233.39 780.00,243.50 C781.58,245.49 783.86,250.13 785.05,253.81 C788.13,263.26 795.36,279.78 799.66,287.20 C805.17,296.70 808.82,300.91 814.90,304.80 C817.93,306.74 827.01,313.32 835.07,319.41 C843.13,325.51 853.69,332.72 858.54,335.44 C873.37,343.75 881.58,351.73 890.43,366.44 L 894.00 372.38 L 894.00 304.90 C894.00,230.64 894.06,231.53 887.79,219.76 C885.94,216.28 882.09,211.51 878.44,208.17 C872.62,202.84 863.16,198.05 723.13,129.66 C641.11,89.60 571.64,56.19 568.75,55.42 C562.01,53.63 550.97,53.63 544.19,55.44 C541.27,56.21 471.76,89.62 389.73,129.68 C248.09,198.83 240.27,202.79 234.45,208.22 C230.98,211.45 226.98,216.45 225.25,219.72 C218.78,231.95 219.00,228.60 219.00,313.68 L 219.00 391.00 L 138.51 391.00 C61.10,391.00 57.83,391.07 52.88,392.95 C45.48,395.77 40.60,399.47 36.58,405.35 C29.62,415.52 29.93,408.45 30.23,551.11 L 30.50 679.50 L 33.10 685.05 C38.05,695.60 45.88,702.06 56.85,704.64 C61.29,705.68 79.20,705.97 140.73,705.98 L 218.96 706.00 L 219.57 708.75 C222.08,720.10 227.64,729.87 235.57,736.86 C238.61,739.54 246.26,744.00 255.50,748.48 C263.75,752.48 330.80,785.21 404.50,821.22 C478.20,857.22 540.08,887.18 542.00,887.79 C549.85,890.26 559.10,890.54 567.51,888.55 ZM 475.44 521.10 C476.75,518.98 503.45,497.00 504.72,497.00 C505.42,497.00 506.00,496.38 506.00,495.63 C506.00,494.73 507.78,494.02 511.12,493.58 C513.93,493.21 516.35,493.04 516.50,493.20 C516.64,493.37 507.99,499.80 497.28,507.50 C479.26,520.45 473.70,523.91 475.44,521.10 ZM 525.21 490.02 C523.40,489.59 521.11,488.51 520.13,487.62 C519.09,486.68 516.62,486.00 514.23,486.00 C511.97,486.00 509.84,485.55 509.50,485.00 C509.14,484.41 510.18,484.00 512.01,484.00 C513.73,484.00 515.95,483.56 516.95,483.03 C518.35,482.28 519.67,482.70 522.67,484.87 C524.81,486.43 528.22,488.01 530.25,488.39 C532.27,488.77 534.20,489.51 534.52,490.04 C535.22,491.16 530.00,491.15 525.21,490.02 ZM 529.75 480.28 C526.64,476.83 528.19,473.00 532.70,473.00 C535.35,473.00 535.55,473.77 533.62,476.53 C532.86,477.61 532.07,479.34 531.87,480.36 C531.51,482.15 531.44,482.15 529.75,480.28 ZM 517.11 471.86 C516.99,466.98 516.06,466.00 511.53,466.00 C509.21,466.00 507.49,463.63 508.56,461.90 C508.87,461.40 510.45,460.30 512.06,459.47 C515.10,457.90 515.96,455.30 513.72,454.45 C513.02,454.18 509.78,454.87 506.53,455.99 C500.09,458.21 497.25,457.38 501.58,454.54 C503.52,453.27 515.89,449.00 517.64,449.00 C518.37,449.00 518.77,469.43 518.10,472.50 L 517.23 476.50 L 517.11 471.86 ZM 462.60 467.79 L 459.70 466.73 L 462.10 465.40 C463.80,464.46 468.61,464.09 478.50,464.14 L 492.50 464.20 L 481.50 466.55 C469.29,469.17 466.83,469.33 462.60,467.79 ZM 546.50 464.48 C541.06,461.31 540.00,460.25 540.00,457.96 C540.00,456.54 540.68,456.00 542.50,456.00 C544.48,456.00 545.00,456.50 545.00,458.43 C545.00,459.98 545.72,461.09 546.99,461.50 C549.28,462.22 552.00,464.71 552.00,466.07 C552.00,467.40 551.02,467.12 546.50,464.48 ZM 460.45 460.56 L 457.69 459.43 L 460.10 457.88 C462.18,456.53 474.61,451.46 480.50,449.54 C481.60,449.19 479.35,450.61 475.50,452.70 L 468.50 456.50 L 477.00 457.06 C481.67,457.37 484.83,457.73 484.00,457.86 C483.17,457.99 478.16,458.90 472.86,459.89 C465.30,461.30 462.62,461.44 460.45,460.56 ZM 531.75 458.31 C530.79,458.06 530.00,457.44 530.00,456.93 C530.00,455.62 531.19,455.83 533.44,457.53 C535.38,459.00 535.03,459.17 531.75,458.31 ZM 547.18 457.45 C547.63,455.28 549.40,455.14 549.81,457.25 C550.02,458.34 549.53,459.00 548.50,459.00 C547.54,459.00 546.99,458.35 547.18,457.45 ZM 600.00 437.56 C585.97,426.39 573.93,417.48 573.24,417.74 C572.39,418.06 572.19,417.66 572.64,416.50 C573.16,415.14 572.90,414.90 571.40,415.37 C570.06,415.79 566.53,413.87 559.50,408.90 C550.08,402.25 548.10,400.13 550.53,399.32 C552.27,398.74 575.14,413.90 589.20,424.94 C596.52,430.69 608.22,439.81 615.21,445.21 C624.04,452.03 627.75,455.49 627.36,456.52 C627.04,457.33 626.50,457.97 626.14,457.93 C625.79,457.89 614.03,448.72 600.00,437.56 ZM 527.22 448.50 L 530.43 442.00 L 534.96 442.07 L 539.50 442.14 L 535.50 443.93 C533.07,445.02 530.20,447.55 528.19,450.36 C526.37,452.91 524.68,455.00 524.45,455.00 C524.21,455.00 525.46,452.08 527.22,448.50 ZM 559.00 448.51 C559.00,446.62 557.55,444.97 552.97,441.63 C549.34,438.99 547.45,437.04 548.24,436.74 C548.95,436.46 550.28,433.94 551.17,431.13 L 552.81 426.03 L 548.85 424.96 C543.99,423.65 537.06,425.43 526.71,430.65 C522.91,432.56 519.59,433.92 519.34,433.67 C519.09,433.42 522.62,429.60 527.18,425.19 C534.36,418.23 536.07,417.07 539.98,416.48 C542.47,416.12 544.95,415.44 545.50,414.99 C546.05,414.54 550.77,415.19 555.99,416.45 L 565.47 418.72 L 560.49 421.36 L 555.50 424.01 L 559.25 423.39 L 563.00 422.78 L 563.00 429.87 C563.00,437.86 561.01,451.00 559.80,451.00 C559.36,451.00 559.00,449.88 559.00,448.51 ZM 515.69 437.12 C515.31,435.27 515.00,432.46 515.00,430.88 C515.00,428.47 514.59,428.00 512.47,428.00 C511.08,428.00 508.41,428.64 506.54,429.42 C503.50,430.69 503.09,430.67 502.51,429.17 C502.09,428.08 502.75,426.82 504.42,425.48 L 506.97 423.45 L 504.58 420.87 C503.14,419.32 500.45,417.95 497.84,417.46 L 493.50 416.63 L 498.50 416.01 C503.91,415.35 503.73,415.19 494.00,412.08 C490.42,410.94 485.25,409.09 482.50,407.98 L 477.50 405.96 L 485.00 406.53 L 492.50 407.10 L 489.82 404.65 C487.87,402.88 485.41,402.00 480.82,401.45 C475.42,400.81 474.91,400.58 477.30,399.92 C485.03,397.78 487.06,398.32 496.50,405.06 C506.46,412.17 514.51,420.00 517.37,425.36 C519.11,428.61 519.14,429.31 517.81,434.69 C516.39,440.44 516.37,440.46 515.69,437.12 ZM 572.98 408.48 C572.28,407.64 571.89,406.80 572.11,406.61 C572.32,406.42 577.00,404.31 582.50,401.91 C592.04,397.75 592.94,397.55 602.00,397.59 C607.22,397.61 612.62,398.13 614.00,398.74 C616.08,399.65 614.99,399.86 607.50,399.99 C593.30,400.23 592.08,400.32 592.49,400.98 C592.88,401.62 576.72,410.00 575.11,410.00 C574.63,410.00 573.68,409.31 572.98,408.48 ZM 557.00 397.42 C552.45,394.51 550.91,394.01 548.06,394.53 C545.11,395.07 544.79,394.95 545.84,393.69 C546.86,392.46 546.52,392.03 543.79,391.08 C541.12,390.15 540.32,390.21 539.45,391.40 C538.11,393.23 536.57,392.20 536.26,389.25 C536.13,388.01 536.13,387.00 536.26,387.00 C536.39,387.00 538.93,387.92 541.89,389.05 C544.90,390.19 548.43,390.86 549.89,390.57 C552.03,390.14 553.54,391.03 558.30,395.52 C561.48,398.53 563.73,400.99 563.30,400.97 C562.86,400.96 560.03,399.36 557.00,397.42 ZM 522.25 393.27 C519.39,393.01 518.00,392.41 518.00,391.44 C518.00,390.57 517.01,390.00 515.50,390.00 C514.00,390.00 513.00,389.43 513.00,388.57 C513.00,387.31 503.65,383.00 500.90,383.00 C500.34,383.00 500.16,382.55 500.50,382.00 C500.84,381.45 501.99,381.00 503.06,381.00 C505.24,381.00 505.65,378.76 503.75,377.25 C503.06,376.70 500.14,375.66 497.25,374.94 C494.36,374.21 492.00,373.33 492.00,372.98 C492.00,372.62 494.14,371.92 496.75,371.42 C501.40,370.52 501.53,370.39 502.70,365.63 C503.83,361.07 503.75,360.52 501.45,357.15 C498.43,352.70 498.40,351.54 501.22,349.56 C506.07,346.16 511.00,348.91 511.00,355.00 C511.00,356.83 510.49,361.26 509.87,364.84 C508.26,374.09 509.72,376.43 521.19,383.06 C526.10,385.89 529.91,388.42 529.65,388.69 C529.39,388.95 524.93,386.88 519.75,384.08 C514.56,381.29 510.01,379.00 509.64,379.00 C509.26,379.00 509.71,380.16 510.64,381.57 C511.56,382.98 515.81,385.90 520.09,388.04 C527.41,391.72 530.74,394.22 527.81,393.83 C527.09,393.73 524.59,393.48 522.25,393.27 ZM 753.00 390.64 C753.00,390.45 755.63,388.66 758.84,386.68 C770.56,379.45 776.77,370.10 780.11,354.65 C781.20,349.62 783.01,343.70 784.13,341.50 C787.90,334.09 801.45,322.00 805.98,322.00 C807.78,322.00 830.38,336.72 837.35,342.43 C843.61,347.56 850.11,357.73 858.18,375.00 C861.90,382.98 864.96,389.84 864.98,390.25 C864.99,390.66 839.80,391.00 809.00,391.00 C778.20,391.00 753.00,390.84 753.00,390.64 ZM 527.00 348.74 C528.38,348.11 529.71,347.44 529.98,347.24 C530.24,347.04 528.66,345.30 526.48,343.37 L 522.50 339.86 L 527.18 342.93 C529.75,344.62 532.29,346.00 532.81,346.00 C533.33,346.00 534.27,346.62 534.89,347.37 C535.81,348.47 535.41,348.87 532.89,349.37 C531.16,349.72 528.57,349.97 527.12,349.93 L 524.50 349.86 L 527.00 348.74 ZM 531.02 341.53 C530.35,340.72 529.44,338.47 529.01,336.53 C528.23,333.07 528.27,333.00 531.36,333.02 C536.56,333.04 537.36,334.07 535.92,338.86 C534.63,343.18 533.09,344.02 531.02,341.53 ZM 533.50 329.48 C527.42,328.40 527.05,328.22 530.67,328.12 C532.96,328.05 535.00,327.50 535.21,326.88 C535.46,326.11 537.38,326.33 541.44,327.61 C546.45,329.19 546.95,329.55 544.90,330.13 C541.87,330.98 541.89,330.98 533.50,329.48 ZM 514.71 326.02 C511.19,322.70 510.83,322.05 512.55,322.02 C514.43,322.00 521.00,327.66 521.00,329.30 C521.00,330.96 518.63,329.73 514.71,326.02 Z" fill="rgb(254,254,254)"/>
</g>
</svg>